<?xml version="1.0" encoding="UTF-8"?>
<svg xmlns="http://www.w3.org/2000/svg" xmlns:xlink="http://www.w3.org/1999/xlink" width="500px" height="333px" viewBox="0 0 499 333" version="1.1">
<g id="surface1">
<path style=" stroke:none;fill-rule:nonzero;fill:rgb(98.823529%,98.823529%,98.823529%);fill-opacity:1;" d="M 0 0 C 164.671875 0 329.339844 0 499 0 C 499 109.890625 499 219.78125 499 333 C 334.328125 333 169.660156 333 0 333 C 0 223.109375 0 113.21875 0 0 Z M 0 0 "/>
<path style=" stroke:none;fill-rule:nonzero;fill:rgb(92.54902%,12.54902%,13.725491%);fill-opacity:1;" d="M 166.007812 80 C 167.039062 80.699219 167.988281 81.457031 168.933594 82.273438 C 169.246094 82.523438 169.558594 82.773438 169.882812 83.03125 C 179.457031 91.035156 183.164062 106.253906 184.28125 118.066406 C 185.0625 127.535156 185.707031 140.71875 181.277344 149.589844 C 181.703125 149.578125 182.132812 149.566406 182.574219 149.554688 C 188.472656 149.445312 188.472656 149.445312 191.347656 150.566406 C 191.664062 150.679688 191.976562 150.792969 192.300781 150.914062 C 198.625 153.359375 203.011719 157.644531 205.863281 163.769531 C 209.652344 172.6875 209.910156 184.542969 207.265625 193.816406 C 207.191406 194.089844 207.117188 194.363281 207.039062 194.648438 C 204.644531 203.199219 199.550781 213.300781 191.738281 218.117188 C 189.472656 219.386719 187.488281 220.269531 184.851562 219.832031 C 183.136719 219.0625 181.648438 217.96875 180.84375 216.234375 C 179.933594 213.558594 180.445312 211.410156 181.273438 208.785156 C 182.496094 204.882812 182.710938 200.945312 182.699219 196.886719 C 182.699219 196.644531 182.699219 196.402344 182.699219 196.152344 C 182.671875 187.992188 180.816406 178.882812 175.105469 172.679688 C 174.890625 172.570312 174.675781 172.464844 174.457031 172.351562 C 174.359375 172.542969 174.261719 172.730469 174.164062 172.925781 C 171.722656 177.722656 169.128906 182.390625 166.332031 186.988281 C 166.0625 187.429688 166.0625 187.429688 165.789062 187.886719 C 161.460938 194.992188 157.015625 201.527344 151.269531 207.5625 C 150.519531 208.359375 149.789062 209.179688 149.054688 209.996094 C 144.660156 214.769531 140.222656 219.132812 134.820312 222.757812 C 134.570312 222.929688 134.320312 223.097656 134.058594 223.273438 C 123.664062 230.222656 112.386719 234.464844 100.058594 236.417969 C 99.46875 236.511719 99.46875 236.511719 98.863281 236.609375 C 95.1875 237.066406 91.777344 237.019531 88.597656 234.960938 C 86.167969 233.046875 84.988281 230.308594 84.464844 227.3125 C 84.089844 224.023438 85.644531 221.84375 87.492188 219.242188 C 88.523438 217.769531 89.527344 216.296875 90.457031 214.75 C 93.351562 210.152344 97.480469 206.085938 101.601562 202.582031 C 104.742188 199.855469 107.707031 196.945312 110.636719 194.003906 C 111.234375 193.40625 111.828125 192.808594 112.425781 192.214844 C 114.160156 190.476562 115.878906 188.746094 117.46875 186.875 C 118.179688 186.042969 118.929688 185.25 119.675781 184.445312 C 121.074219 182.929688 122.402344 181.375 123.6875 179.761719 C 124.207031 179.125 124.742188 178.5 125.28125 177.878906 C 128.902344 173.757812 129.566406 169.984375 129.355469 164.644531 C 129.054688 160.710938 126.660156 156.679688 123.804688 154.039062 C 120.582031 151.441406 116.5625 150.480469 112.46875 150.804688 C 106.839844 151.472656 101 153.039062 96 155.726562 C 94.203125 156.664062 92.65625 157.296875 90.640625 156.742188 C 89.292969 155.734375 88.492188 154.644531 88.234375 152.972656 C 88.097656 148.757812 90.222656 145.785156 92.941406 142.773438 C 100.132812 135.113281 110.753906 131.15625 121.082031 130.636719 C 129.109375 130.394531 136.207031 133.1875 142.148438 138.578125 C 143.050781 139.519531 143.050781 139.519531 144.242188 139.835938 C 146.128906 132.605469 147.746094 125.496094 148.464844 118.046875 C 148.5 117.710938 148.53125 117.371094 148.566406 117.027344 C 148.800781 114.371094 148.839844 111.726562 148.832031 109.0625 C 148.832031 108.355469 148.832031 107.648438 148.835938 106.941406 C 148.835938 104.222656 148.730469 101.53125 148.542969 98.820312 C 148.417969 96.800781 148.378906 94.785156 148.363281 92.761719 C 148.355469 92.367188 148.34375 91.976562 148.335938 91.570312 C 148.304688 87.390625 149.328125 84.09375 152.242188 81.078125 C 156.136719 77.449219 161.515625 77.386719 166.007812 80 Z M 166.007812 80 "/>
<path style=" stroke:none;fill-rule:nonzero;fill:rgb(92.54902%,12.941177%,13.725491%);fill-opacity:1;" d="M 299.136719 188.644531 C 301.832031 190.949219 303.558594 193.550781 304.992188 196.761719 C 305.085938 196.972656 305.179688 197.183594 305.277344 197.402344 C 307.785156 203.300781 307.300781 210.488281 304.949219 216.347656 C 302.207031 222.273438 297.65625 225.683594 291.746094 228.015625 C 286.242188 229.699219 279.859375 228.808594 274.71875 226.417969 C 270.746094 224.269531 267.699219 221.300781 265.640625 217.292969 C 265.535156 217.085938 265.429688 216.882812 265.320312 216.671875 C 263.761719 213.460938 263.308594 210.199219 263.347656 206.660156 C 263.34375 206.324219 263.339844 205.988281 263.335938 205.640625 C 263.347656 202.21875 264.058594 199.085938 265.640625 196.050781 C 265.753906 195.832031 265.867188 195.609375 265.984375 195.382812 C 268.546875 190.554688 272.332031 187.300781 277.4375 185.359375 C 277.722656 185.25 278.007812 185.140625 278.300781 185.027344 C 285.191406 182.839844 293.429688 184.335938 299.136719 188.644531 Z M 299.136719 188.644531 "/>
<path style=" stroke:none;fill-rule:nonzero;fill:rgb(92.941177%,12.941177%,13.725491%);fill-opacity:1;" d="M 304.851562 122.863281 C 309.625 126.953125 312.046875 132.714844 312.851562 138.859375 C 312.910156 139.910156 312.925781 140.957031 312.929688 142.007812 C 312.941406 142.425781 312.941406 142.425781 312.949219 142.851562 C 312.953125 143.25 312.953125 143.25 312.957031 143.660156 C 312.960938 143.898438 312.960938 144.140625 312.964844 144.390625 C 312.816406 145.230469 312.53125 145.480469 311.875 146.011719 C 310.882812 146.105469 309.953125 146.136719 308.960938 146.125 C 308.664062 146.125 308.363281 146.125 308.058594 146.125 C 307.070312 146.125 306.085938 146.117188 305.101562 146.109375 C 304.417969 146.105469 303.734375 146.105469 303.050781 146.105469 C 301.25 146.101562 299.453125 146.089844 297.652344 146.078125 C 295.816406 146.070312 293.980469 146.066406 292.144531 146.058594 C 288.542969 146.050781 284.941406 146.035156 281.335938 146.011719 C 281.480469 146.738281 281.628906 147.464844 281.777344 148.1875 C 281.898438 148.792969 281.898438 148.792969 282.023438 149.410156 C 282.410156 150.964844 283.035156 152.183594 283.9375 153.492188 C 284.171875 153.839844 284.40625 154.191406 284.648438 154.550781 C 286.453125 156.316406 288.894531 157.433594 291.429688 157.476562 C 294.867188 157.425781 297.445312 156.179688 300.179688 154.140625 C 300.355469 153.953125 300.53125 153.761719 300.714844 153.566406 C 302.023438 152.210938 302.941406 151.710938 304.847656 151.597656 C 305.597656 151.601562 306.351562 151.617188 307.101562 151.644531 C 307.679688 151.640625 307.679688 151.640625 308.265625 151.640625 C 311.046875 151.6875 311.046875 151.6875 311.816406 152.464844 C 312.40625 153.550781 312.359375 154.21875 312.199219 155.445312 C 311.285156 158.074219 309.589844 160.003906 307.652344 161.945312 C 307.46875 162.136719 307.285156 162.324219 307.09375 162.515625 C 302.417969 166.910156 295.933594 167.441406 289.859375 167.273438 C 283.839844 166.984375 278.484375 164.589844 274.191406 160.320312 C 269.835938 155.246094 268.289062 149.453125 268.261719 142.882812 C 268.253906 142.488281 268.246094 142.097656 268.242188 141.691406 C 268.210938 135.136719 270.734375 129.378906 275.226562 124.632812 C 283.320312 116.898438 295.90625 116.097656 304.851562 122.863281 Z M 304.851562 122.863281 "/>
<path style=" stroke:none;fill-rule:nonzero;fill:rgb(98.823529%,98.431373%,98.431373%);fill-opacity:1;" d="M 160.484375 84.875 C 165.515625 86.460938 168.882812 91.902344 171.21875 96.304688 C 172.960938 99.660156 174.34375 103.039062 175.429688 106.664062 C 175.523438 106.96875 175.617188 107.273438 175.710938 107.585938 C 177.011719 112.269531 177.566406 117.421875 177.703125 122.273438 C 177.710938 122.585938 177.722656 122.898438 177.730469 123.21875 C 177.914062 131.074219 177.175781 138.582031 175.28125 146.210938 C 175.074219 147.0625 175.074219 147.0625 174.941406 148.242188 C 174.734375 149.402344 174.574219 149.996094 173.804688 150.890625 C 172.070312 151.859375 170.105469 152.324219 168.210938 152.878906 C 166.75 153.34375 165.367188 153.96875 163.976562 154.609375 C 163.710938 154.734375 163.441406 154.855469 163.164062 154.980469 C 161.417969 155.789062 159.703125 156.644531 157.988281 157.515625 C 156.25 158.402344 154.554688 159.109375 152.6875 159.671875 C 149.171875 160.8125 145.878906 162.148438 142.617188 163.898438 C 143.003906 162.898438 143.421875 161.917969 143.855469 160.941406 C 148.0625 151.429688 151.25 141.578125 153.277344 131.378906 C 153.324219 131.152344 153.371094 130.925781 153.417969 130.695312 C 153.761719 128.976562 154.050781 127.257812 154.3125 125.523438 C 154.359375 125.222656 154.40625 124.921875 154.453125 124.613281 C 155.59375 116.78125 155.355469 108.933594 155.253906 101.042969 C 155.230469 99.152344 155.214844 97.257812 155.203125 95.367188 C 155.195312 94.492188 155.179688 93.617188 155.164062 92.742188 C 155.160156 92.207031 155.160156 91.671875 155.15625 91.132812 C 155.148438 90.894531 155.144531 90.65625 155.136719 90.410156 C 155.140625 88.257812 155.871094 86.929688 157.339844 85.382812 C 158.503906 84.703125 159.148438 84.695312 160.484375 84.875 Z M 160.484375 84.875 "/>
<path style=" stroke:none;fill-rule:nonzero;fill:rgb(92.941177%,12.54902%,13.725491%);fill-opacity:1;" d="M 243.429688 118.554688 C 243.8125 118.558594 244.199219 118.558594 244.59375 118.5625 C 249.820312 118.664062 254.640625 120.003906 258.574219 123.636719 C 260.453125 125.644531 262.203125 128.5625 262.230469 131.378906 C 262.234375 131.601562 262.238281 131.820312 262.246094 132.050781 C 262.171875 132.679688 262.171875 132.679688 261.519531 133.65625 C 260.550781 133.765625 260.550781 133.765625 259.324219 133.75 C 259.109375 133.75 258.894531 133.746094 258.671875 133.746094 C 257.984375 133.742188 257.296875 133.730469 256.605469 133.714844 C 256.140625 133.710938 255.671875 133.707031 255.207031 133.703125 C 254.0625 133.691406 252.917969 133.675781 251.773438 133.65625 C 251.664062 133.429688 251.554688 133.203125 251.445312 132.972656 C 251.226562 132.53125 251.226562 132.53125 251.007812 132.078125 C 250.867188 131.785156 250.722656 131.492188 250.578125 131.191406 C 249.652344 129.484375 248.230469 128.84375 246.441406 128.304688 C 243.988281 127.789062 241.628906 127.851562 239.378906 129.015625 C 238.417969 129.675781 237.957031 130.320312 237.480469 131.378906 C 237.328125 132.613281 237.367188 133.382812 237.84375 134.527344 C 239.085938 136.058594 240.597656 136.730469 242.476562 137.191406 C 242.679688 137.242188 242.882812 137.296875 243.089844 137.347656 C 244.445312 137.691406 245.808594 138.003906 247.167969 138.320312 C 252.652344 139.601562 258.121094 140.953125 261.316406 146.011719 C 263.210938 149.230469 263.339844 153.246094 262.597656 156.851562 C 261.457031 160.25 259.125 163.019531 256.003906 164.765625 C 252.058594 166.679688 248.40625 167.328125 244.039062 167.292969 C 243.824219 167.292969 243.609375 167.289062 243.386719 167.289062 C 237.4375 167.246094 232.160156 165.894531 227.714844 161.679688 C 225.578125 159.28125 224.4375 156.703125 224.367188 153.507812 C 224.523438 152.625 224.738281 152.398438 225.460938 151.867188 C 226.433594 151.753906 226.433594 151.753906 227.617188 151.769531 C 228.039062 151.773438 228.460938 151.777344 228.894531 151.78125 C 229.339844 151.789062 229.785156 151.796875 230.230469 151.804688 C 230.679688 151.808594 231.128906 151.816406 231.578125 151.820312 C 232.679688 151.832031 233.78125 151.847656 234.882812 151.867188 C 234.984375 152.089844 235.089844 152.308594 235.199219 152.539062 C 235.339844 152.828125 235.480469 153.121094 235.625 153.421875 C 235.765625 153.710938 235.902344 154 236.042969 154.296875 C 237.109375 156.191406 238.660156 157.132812 240.65625 157.847656 C 241.882812 158.183594 243.078125 158.1875 244.34375 158.167969 C 244.71875 158.171875 244.71875 158.171875 245.101562 158.179688 C 246.714844 158.171875 247.75 157.886719 249.175781 157.070312 C 249.390625 157.070312 249.605469 157.070312 249.824219 157.070312 C 250.660156 155.453125 251.046875 154.019531 250.800781 152.191406 C 249.871094 150.328125 248.660156 149.359375 246.761719 148.640625 C 244.679688 147.964844 242.566406 147.449219 240.441406 146.933594 C 234.933594 145.597656 229.800781 144.265625 226.640625 139.109375 C 225.550781 136.988281 225.382812 135.144531 225.359375 132.78125 C 225.347656 132.5 225.339844 132.222656 225.328125 131.933594 C 225.308594 129.839844 225.765625 128.335938 226.757812 126.5 C 226.90625 126.222656 227.054688 125.941406 227.210938 125.65625 C 229.726562 121.738281 233.625 119.964844 238.03125 118.898438 C 239.832031 118.558594 241.601562 118.539062 243.429688 118.554688 Z M 243.429688 118.554688 "/>
<path style=" stroke:none;fill-rule:nonzero;fill:rgb(92.941177%,12.54902%,13.725491%);fill-opacity:1;" d="M 315.773438 119.671875 C 317.410156 119.648438 319.046875 119.628906 320.679688 119.617188 C 321.238281 119.613281 321.792969 119.605469 322.347656 119.597656 C 323.148438 119.585938 323.949219 119.582031 324.75 119.578125 C 325.121094 119.570312 325.121094 119.570312 325.5 119.5625 C 326.980469 119.5625 327.914062 119.738281 329.09375 120.648438 C 329.695312 121.34375 329.695312 121.34375 330.269531 122.171875 C 330.605469 122.648438 330.605469 122.648438 330.945312 123.132812 C 331.195312 123.496094 331.441406 123.859375 331.691406 124.226562 C 331.976562 124.640625 332.265625 125.054688 332.550781 125.46875 C 333.160156 126.347656 333.765625 127.234375 334.367188 128.117188 C 334.953125 128.976562 335.546875 129.828125 336.144531 130.675781 C 336.28125 130.871094 336.417969 131.066406 336.558594 131.265625 C 336.929688 131.792969 337.300781 132.324219 337.675781 132.851562 C 338.1875 133.65625 338.1875 133.65625 338.1875 134.304688 C 338.402344 134.304688 338.617188 134.304688 338.839844 134.304688 C 338.910156 134.089844 338.980469 133.871094 339.054688 133.648438 C 339.625 132.375 340.398438 131.324219 341.214844 130.199219 C 342.339844 128.632812 343.453125 127.0625 344.527344 125.460938 C 344.804688 125.042969 344.804688 125.042969 345.089844 124.621094 C 345.449219 124.082031 345.808594 123.542969 346.164062 123.003906 C 346.328125 122.757812 346.496094 122.511719 346.664062 122.257812 C 346.808594 122.039062 346.953125 121.824219 347.101562 121.601562 C 348.125 120.339844 348.8125 119.722656 350.464844 119.523438 C 350.9375 119.523438 351.410156 119.53125 351.882812 119.542969 C 352.132812 119.546875 352.382812 119.546875 352.640625 119.550781 C 353.433594 119.558594 354.226562 119.574219 355.023438 119.589844 C 355.5625 119.597656 356.101562 119.601562 356.644531 119.609375 C 357.964844 119.621094 359.285156 119.644531 360.605469 119.671875 C 360.808594 120.417969 360.808594 120.417969 360.929688 121.296875 C 360.40625 122.136719 359.886719 122.855469 359.265625 123.613281 C 358.902344 124.078125 358.539062 124.542969 358.179688 125.007812 C 357.988281 125.25 357.800781 125.496094 357.605469 125.746094 C 356.652344 127 355.777344 128.304688 354.898438 129.609375 C 353.625 131.496094 352.332031 133.367188 350.980469 135.199219 C 350.839844 135.394531 350.699219 135.585938 350.550781 135.789062 C 349.78125 136.832031 348.996094 137.863281 348.195312 138.886719 C 348.027344 139.105469 347.859375 139.324219 347.683594 139.550781 C 347.359375 139.972656 347.027344 140.394531 346.691406 140.808594 C 346.191406 141.4375 346.191406 141.4375 345.660156 142.4375 C 345.898438 143.84375 346.855469 144.835938 347.734375 145.929688 C 349.023438 147.570312 350.253906 149.242188 351.449219 150.953125 C 352.820312 152.914062 354.207031 154.863281 355.609375 156.804688 C 355.785156 157.046875 355.960938 157.289062 356.140625 157.542969 C 356.976562 158.703125 357.816406 159.855469 358.679688 160.996094 C 358.914062 161.304688 358.914062 161.304688 359.148438 161.621094 C 359.433594 162.003906 359.722656 162.382812 360.019531 162.761719 C 360.960938 164.03125 360.960938 164.03125 360.800781 165.097656 C 360.738281 165.34375 360.671875 165.59375 360.605469 165.851562 C 358.921875 165.890625 357.242188 165.917969 355.558594 165.9375 C 354.988281 165.945312 354.414062 165.957031 353.84375 165.972656 C 353.019531 165.992188 352.195312 166 351.375 166.007812 C 350.992188 166.019531 350.992188 166.019531 350.601562 166.035156 C 349.253906 166.035156 348.746094 165.976562 347.65625 165.101562 C 347.425781 164.8125 347.199219 164.523438 346.960938 164.222656 C 346.710938 163.914062 346.710938 163.914062 346.457031 163.601562 C 346.3125 163.402344 346.171875 163.203125 346.027344 163 C 345.863281 162.773438 345.699219 162.546875 345.53125 162.3125 C 345.359375 162.070312 345.1875 161.828125 345.011719 161.582031 C 344.832031 161.328125 344.652344 161.078125 344.464844 160.820312 C 342.4375 157.972656 340.472656 155.085938 338.515625 152.191406 C 337.277344 153.324219 336.375 154.621094 335.429688 155.992188 C 335.257812 156.234375 335.089844 156.472656 334.917969 156.722656 C 334.023438 158 333.136719 159.28125 332.25 160.566406 C 332.078125 160.816406 331.90625 161.0625 331.730469 161.320312 C 331.402344 161.796875 331.074219 162.269531 330.75 162.75 C 330.597656 162.964844 330.449219 163.183594 330.292969 163.40625 C 330.164062 163.597656 330.03125 163.785156 329.898438 163.980469 C 328.410156 165.738281 328.410156 165.738281 327.171875 165.960938 C 326.421875 166 325.683594 165.996094 324.933594 165.976562 C 324.664062 165.976562 324.390625 165.972656 324.109375 165.972656 C 323.246094 165.964844 322.382812 165.949219 321.519531 165.929688 C 320.933594 165.925781 320.34375 165.917969 319.757812 165.914062 C 318.320312 165.898438 316.886719 165.875 315.449219 165.851562 C 315.609375 164.550781 315.804688 163.667969 316.59375 162.621094 C 316.847656 162.277344 316.847656 162.277344 317.105469 161.925781 C 317.289062 161.683594 317.472656 161.445312 317.660156 161.195312 C 318.046875 160.671875 318.433594 160.152344 318.820312 159.628906 C 319.019531 159.367188 319.214844 159.101562 319.417969 158.828125 C 320.300781 157.632812 321.152344 156.417969 322.007812 155.199219 C 322.328125 154.742188 322.652344 154.28125 322.972656 153.824219 C 323.128906 153.605469 323.28125 153.386719 323.441406 153.160156 C 324.140625 152.171875 324.839844 151.183594 325.539062 150.199219 C 325.730469 149.929688 325.730469 149.929688 325.925781 149.652344 C 326.648438 148.632812 327.394531 147.636719 328.164062 146.652344 C 328.332031 146.433594 328.5 146.214844 328.671875 145.992188 C 329 145.566406 329.332031 145.148438 329.667969 144.730469 C 330.175781 144.09375 330.175781 144.09375 330.71875 143.085938 C 330.480469 141.601562 329.378906 140.441406 328.484375 139.265625 C 328.160156 138.828125 327.832031 138.390625 327.507812 137.957031 C 327.339844 137.730469 327.171875 137.503906 327 137.269531 C 326.179688 136.152344 325.382812 135.015625 324.585938 133.878906 C 323.390625 132.175781 322.1875 130.480469 320.964844 128.796875 C 320.261719 127.824219 319.5625 126.851562 318.863281 125.878906 C 318.394531 125.230469 317.917969 124.582031 317.445312 123.9375 C 317.171875 123.558594 316.898438 123.179688 316.625 122.800781 C 316.269531 122.316406 316.269531 122.316406 315.90625 121.820312 C 315.449219 120.972656 315.449219 120.972656 315.582031 120.269531 C 315.644531 120.070312 315.707031 119.875 315.773438 119.671875 Z M 315.773438 119.671875 "/>
<path style=" stroke:none;fill-rule:nonzero;fill:rgb(98.823529%,98.431373%,98.431373%);fill-opacity:1;" d="M 159.835938 164.875 C 159.652344 166.746094 158.9375 168.246094 158.128906 169.914062 C 157.988281 170.210938 157.84375 170.507812 157.699219 170.816406 C 156.011719 174.261719 154.066406 177.550781 152.039062 180.808594 C 151.898438 181.03125 151.761719 181.253906 151.617188 181.484375 C 149.953125 184.136719 148.101562 186.644531 146.210938 189.140625 C 146.007812 189.414062 145.800781 189.683594 145.589844 189.964844 C 142.640625 193.8125 139.496094 197.375 136.058594 200.792969 C 135.46875 201.378906 134.882812 201.96875 134.296875 202.5625 C 132.082031 204.78125 129.828125 206.851562 127.347656 208.773438 C 127.125 208.949219 126.902344 209.125 126.671875 209.308594 C 119.300781 215.066406 107.027344 224.546875 97.136719 223.410156 C 95.972656 222.609375 95.585938 222.128906 95.289062 220.746094 C 96.035156 216.601562 99.84375 213.523438 102.679688 210.664062 C 102.863281 210.480469 103.046875 210.292969 103.234375 210.105469 C 104.15625 209.183594 105.09375 208.304688 106.085938 207.460938 C 107.8125 205.949219 109.425781 204.324219 111.046875 202.699219 C 111.378906 202.367188 111.710938 202.03125 112.046875 201.699219 C 112.738281 201.003906 113.433594 200.308594 114.125 199.613281 C 115.007812 198.730469 115.890625 197.847656 116.777344 196.964844 C 117.464844 196.277344 118.148438 195.589844 118.835938 194.902344 C 119.160156 194.578125 119.488281 194.25 119.8125 193.925781 C 121.949219 191.789062 123.988281 189.609375 125.910156 187.277344 C 127.949219 184.800781 130.144531 182.496094 132.40625 180.21875 C 132.683594 179.9375 132.964844 179.652344 133.253906 179.359375 C 135.191406 177.429688 137.222656 175.671875 139.367188 173.980469 C 139.664062 173.742188 139.664062 173.742188 139.96875 173.503906 C 145.335938 169.304688 152.8125 164.875 159.835938 164.875 Z M 159.835938 164.875 "/>
<path style=" stroke:none;fill-rule:nonzero;fill:rgb(92.941177%,12.54902%,13.725491%);fill-opacity:1;" d="M 307.652344 185.359375 C 309.207031 185.335938 310.761719 185.320312 312.316406 185.308594 C 312.847656 185.304688 313.375 185.296875 313.90625 185.289062 C 314.664062 185.277344 315.425781 185.269531 316.1875 185.265625 C 316.421875 185.261719 316.660156 185.257812 316.902344 185.25 C 318.53125 185.25 318.53125 185.25 319.304688 185.769531 C 319.714844 186.40625 319.996094 187.003906 320.257812 187.714844 C 320.363281 188.003906 320.472656 188.289062 320.582031 188.585938 C 320.699219 188.902344 320.8125 189.222656 320.929688 189.546875 C 321.054688 189.886719 321.179688 190.222656 321.308594 190.570312 C 322.648438 194.234375 323.933594 197.917969 325.207031 201.605469 C 326.648438 205.753906 328.1875 209.867188 329.742188 213.976562 C 329.816406 213.765625 329.890625 213.554688 329.964844 213.339844 C 336.1875 195.445312 336.1875 195.445312 338.371094 189.609375 C 338.578125 189.050781 338.578125 189.050781 338.785156 188.480469 C 338.910156 188.152344 339.035156 187.824219 339.164062 187.488281 C 339.269531 187.210938 339.371094 186.9375 339.476562 186.65625 C 339.8125 186.011719 339.8125 186.011719 340.789062 185.359375 C 341.589844 185.304688 342.355469 185.285156 343.15625 185.296875 C 343.5 185.300781 343.5 185.300781 343.851562 185.300781 C 344.585938 185.304688 345.316406 185.3125 346.046875 185.320312 C 346.542969 185.324219 347.039062 185.328125 347.535156 185.328125 C 348.753906 185.335938 349.96875 185.347656 351.183594 185.359375 C 351.578125 186.550781 351.40625 186.851562 350.976562 188.007812 C 350.847656 188.359375 350.714844 188.714844 350.582031 189.078125 C 350.433594 189.476562 350.28125 189.871094 350.128906 190.28125 C 349.96875 190.710938 349.808594 191.140625 349.648438 191.570312 C 347.898438 196.261719 346.074219 200.921875 344.261719 205.589844 C 342.386719 210.402344 340.539062 215.222656 338.707031 220.050781 C 336.640625 225.476562 334.574219 230.902344 332.453125 236.304688 C 332.246094 236.832031 332.039062 237.363281 331.832031 237.890625 C 331.554688 238.605469 331.273438 239.324219 330.988281 240.039062 C 330.832031 240.433594 330.679688 240.828125 330.515625 241.234375 C 329.4375 243.726562 329.4375 243.726562 328.445312 244.222656 C 327.050781 244.289062 325.660156 244.28125 324.265625 244.28125 C 323.574219 244.28125 322.878906 244.289062 322.1875 244.292969 C 321.746094 244.296875 321.308594 244.296875 320.871094 244.296875 C 320.46875 244.296875 320.066406 244.300781 319.65625 244.300781 C 318.699219 244.222656 318.699219 244.222656 318.046875 243.570312 C 318.148438 241.777344 318.898438 240.195312 319.574219 238.554688 C 319.816406 237.957031 320.054688 237.355469 320.296875 236.753906 C 320.671875 235.8125 321.054688 234.871094 321.441406 233.933594 C 321.816406 233.027344 322.179688 232.113281 322.539062 231.199219 C 322.65625 230.921875 322.773438 230.648438 322.898438 230.363281 C 323.742188 228.175781 323.464844 226.84375 322.597656 224.710938 C 322.484375 224.410156 322.371094 224.113281 322.253906 223.804688 C 321.871094 222.804688 321.476562 221.8125 321.074219 220.824219 C 320.925781 220.457031 320.78125 220.089844 320.628906 219.714844 C 320.15625 218.53125 319.679688 217.351562 319.203125 216.171875 C 318.878906 215.359375 318.550781 214.542969 318.222656 213.726562 C 317.582031 212.132812 316.941406 210.539062 316.300781 208.945312 C 315.617188 207.242188 314.933594 205.539062 314.257812 203.832031 C 314.09375 203.417969 313.929688 203.007812 313.765625 202.59375 C 313.472656 201.847656 313.175781 201.101562 312.878906 200.355469 C 312.070312 198.324219 311.230469 196.3125 310.367188 194.304688 C 310.167969 193.832031 309.964844 193.363281 309.765625 192.894531 C 309.382812 192 308.992188 191.109375 308.601562 190.214844 C 308.425781 189.8125 308.253906 189.410156 308.082031 189.007812 C 307.929688 188.65625 307.773438 188.304688 307.617188 187.941406 C 307.304688 186.917969 307.34375 186.375 307.652344 185.359375 Z M 307.652344 185.359375 "/>
<path style=" stroke:none;fill-rule:nonzero;fill:rgb(92.54902%,12.54902%,13.725491%);fill-opacity:1;" d="M 380.972656 187.066406 C 383.746094 189.171875 385.492188 191.484375 386.59375 194.792969 C 386.660156 195.503906 386.660156 195.503906 386.675781 196.277344 C 386.683594 196.53125 386.691406 196.785156 386.703125 197.050781 C 386.667969 197.269531 386.632812 197.492188 386.59375 197.71875 C 385.460938 198.476562 385.015625 198.445312 383.675781 198.433594 C 383.109375 198.429688 383.109375 198.429688 382.53125 198.425781 C 381.941406 198.417969 381.941406 198.417969 381.335938 198.410156 C 380.9375 198.40625 380.539062 198.402344 380.128906 198.402344 C 379.144531 198.394531 378.160156 198.382812 377.171875 198.367188 C 377.070312 198.144531 376.964844 197.921875 376.859375 197.691406 C 376.71875 197.398438 376.578125 197.105469 376.433594 196.804688 C 376.296875 196.515625 376.160156 196.226562 376.019531 195.925781 C 375.15625 194.441406 373.921875 193.707031 372.300781 193.164062 C 368.90625 192.859375 368.90625 192.859375 365.703125 193.695312 C 364.5625 194.703125 363.925781 195.507812 363.800781 197.066406 C 363.867188 198.429688 364.011719 198.855469 365.03125 199.863281 C 366.085938 200.683594 367.132812 201.078125 368.421875 201.457031 C 368.644531 201.523438 368.863281 201.589844 369.09375 201.660156 C 370.679688 202.125 372.28125 202.492188 373.898438 202.847656 C 378.257812 203.816406 382.464844 205.042969 385.296875 208.773438 C 387.199219 211.773438 387.738281 215.082031 387.042969 218.558594 C 386.019531 222.082031 383.96875 224.664062 380.785156 226.484375 C 374.964844 229.363281 367.449219 229.777344 361.261719 227.722656 C 357.078125 225.972656 353.90625 223.734375 352.058594 219.507812 C 351.765625 218.238281 351.726562 217.234375 351.835938 215.929688 C 352.207031 215.371094 352.207031 215.371094 352.808594 214.953125 C 353.695312 214.84375 353.695312 214.84375 354.75 214.859375 C 355.128906 214.863281 355.507812 214.863281 355.898438 214.867188 C 356.292969 214.875 356.6875 214.882812 357.09375 214.894531 C 357.492188 214.898438 357.890625 214.902344 358.300781 214.90625 C 359.285156 214.917969 360.269531 214.933594 361.253906 214.953125 C 361.414062 215.253906 361.414062 215.253906 361.578125 215.5625 C 361.71875 215.824219 361.863281 216.085938 362.007812 216.359375 C 362.21875 216.75 362.21875 216.75 362.433594 217.148438 C 363.5 218.898438 365.167969 219.871094 367.101562 220.484375 C 368.019531 220.621094 368.917969 220.636719 369.84375 220.625 C 370.085938 220.621094 370.332031 220.621094 370.582031 220.617188 C 372.441406 220.5625 373.710938 220.335938 375.226562 219.179688 C 376.046875 218.085938 376.277344 217.25 376.199219 215.910156 C 375.945312 214.511719 375.398438 213.863281 374.25 213.003906 C 371.886719 211.691406 369.332031 211.195312 366.71875 210.625 C 357.871094 208.617188 357.871094 208.617188 355.183594 205.136719 C 353.144531 201.75 352.101562 198.105469 353.035156 194.167969 C 354.152344 190.769531 356.375 187.824219 359.597656 186.183594 C 366.144531 183.359375 374.835938 183.035156 380.972656 187.066406 Z M 380.972656 187.066406 "/>
<path style=" stroke:none;fill-rule:nonzero;fill:rgb(92.941177%,13.333334%,14.509805%);fill-opacity:1;" d="M 226.871094 172.878906 C 227.230469 172.875 227.589844 172.871094 227.964844 172.867188 C 228.359375 172.871094 228.753906 172.871094 229.160156 172.871094 C 229.578125 172.871094 229.992188 172.867188 230.421875 172.867188 C 231.566406 172.859375 232.707031 172.859375 233.851562 172.863281 C 234.804688 172.863281 235.757812 172.859375 236.710938 172.859375 C 238.960938 172.855469 241.210938 172.855469 243.457031 172.859375 C 245.78125 172.863281 248.101562 172.859375 250.421875 172.847656 C 252.414062 172.84375 254.40625 172.839844 256.398438 172.84375 C 257.589844 172.84375 258.777344 172.84375 259.96875 172.835938 C 261.296875 172.832031 262.621094 172.835938 263.949219 172.839844 C 264.34375 172.835938 264.738281 172.835938 265.144531 172.832031 C 265.6875 172.835938 265.6875 172.835938 266.238281 172.839844 C 266.710938 172.839844 266.710938 172.839844 267.191406 172.839844 C 268.257812 173.050781 268.644531 173.464844 269.316406 174.304688 C 269.484375 175.058594 269.484375 175.058594 269.488281 175.878906 C 269.492188 176.328125 269.492188 176.328125 269.496094 176.78125 C 269.488281 177.09375 269.484375 177.402344 269.480469 177.71875 C 269.488281 178.183594 269.488281 178.183594 269.496094 178.65625 C 269.492188 178.953125 269.492188 179.25 269.488281 179.558594 C 269.488281 179.828125 269.488281 180.101562 269.484375 180.378906 C 269.242188 181.476562 268.941406 181.777344 268.019531 182.433594 C 266.863281 182.621094 265.71875 182.585938 264.550781 182.5625 C 264.214844 182.558594 263.875 182.558594 263.527344 182.554688 C 262.453125 182.546875 261.378906 182.53125 260.300781 182.515625 C 259.570312 182.507812 258.84375 182.503906 258.113281 182.5 C 256.324219 182.484375 254.535156 182.460938 252.75 182.433594 C 252.75 182.65625 252.75 182.882812 252.75 183.113281 C 252.773438 188.546875 252.789062 193.976562 252.800781 199.410156 C 252.804688 202.039062 252.8125 204.667969 252.820312 207.292969 C 252.832031 209.585938 252.839844 211.875 252.839844 214.164062 C 252.839844 215.378906 252.84375 216.589844 252.851562 217.804688 C 252.859375 219.15625 252.859375 220.507812 252.859375 221.863281 C 252.863281 222.265625 252.867188 222.667969 252.871094 223.082031 C 252.867188 223.453125 252.867188 223.820312 252.867188 224.199219 C 252.867188 224.519531 252.867188 224.839844 252.867188 225.171875 C 252.726562 226.160156 252.472656 226.605469 251.773438 227.3125 C 250.785156 227.480469 250.785156 227.480469 249.582031 227.484375 C 249.367188 227.484375 249.15625 227.488281 248.9375 227.488281 C 248.488281 227.488281 248.039062 227.488281 247.589844 227.480469 C 246.902344 227.472656 246.21875 227.480469 245.53125 227.488281 C 245.09375 227.488281 244.65625 227.488281 244.222656 227.484375 C 243.824219 227.484375 243.425781 227.480469 243.019531 227.480469 C 242.027344 227.3125 242.027344 227.3125 241.484375 226.765625 C 240.953125 225.839844 240.933594 225.261719 240.9375 224.199219 C 240.933594 223.832031 240.933594 223.464844 240.933594 223.082031 C 240.9375 222.679688 240.9375 222.277344 240.941406 221.863281 C 240.941406 221.226562 240.941406 221.226562 240.941406 220.574219 C 240.941406 219.410156 240.949219 218.246094 240.953125 217.078125 C 240.960938 215.863281 240.960938 214.644531 240.960938 213.425781 C 240.964844 211.121094 240.972656 208.816406 240.984375 206.507812 C 240.992188 203.882812 241 201.257812 241.003906 198.632812 C 241.015625 193.234375 241.03125 187.835938 241.054688 182.433594 C 240.855469 182.4375 240.660156 182.4375 240.457031 182.441406 C 238.40625 182.460938 236.355469 182.476562 234.304688 182.488281 C 233.539062 182.492188 232.773438 182.5 232.007812 182.507812 C 230.910156 182.519531 229.8125 182.527344 228.710938 182.53125 C 228.199219 182.539062 228.199219 182.539062 227.671875 182.546875 C 227.195312 182.546875 227.195312 182.546875 226.707031 182.546875 C 226.425781 182.546875 226.144531 182.550781 225.855469 182.550781 C 224.976562 182.410156 224.691406 182.167969 224.160156 181.457031 C 224.035156 180.675781 224.035156 180.675781 224.03125 179.761719 C 224.03125 179.433594 224.027344 179.101562 224.027344 178.761719 C 224.03125 178.417969 224.035156 178.074219 224.039062 177.71875 C 224.035156 177.375 224.03125 177.03125 224.027344 176.675781 C 224.027344 176.179688 224.027344 176.179688 224.03125 175.675781 C 224.03125 175.375 224.03125 175.074219 224.035156 174.761719 C 224.304688 173.074219 225.316406 172.882812 226.871094 172.878906 Z M 226.871094 172.878906 "/>
<path style=" stroke:none;fill-rule:nonzero;fill:rgb(98.823529%,98.039216%,98.039216%);fill-opacity:1;" d="M 195.039062 159.921875 C 199.941406 163.957031 201.550781 170.125 202.242188 176.191406 C 203.3125 187.171875 200.324219 198.867188 193.296875 207.476562 C 191.730469 209.371094 190.226562 211.078125 188.101562 212.351562 C 187.886719 212.351562 187.671875 212.351562 187.449219 212.351562 C 187.488281 212.160156 187.523438 211.964844 187.5625 211.765625 C 187.738281 210.878906 187.90625 209.988281 188.078125 209.101562 C 188.136719 208.796875 188.199219 208.492188 188.257812 208.179688 C 190.601562 195.984375 189.292969 181.566406 182.25 171.054688 C 178.914062 166.457031 173.835938 161.988281 168.28125 160.320312 C 168.722656 159.445312 169.121094 159.410156 170.03125 159.074219 C 170.476562 158.90625 170.476562 158.90625 170.929688 158.738281 C 179.242188 155.75 187.484375 154.234375 195.039062 159.921875 Z M 195.039062 159.921875 "/>
<path style=" stroke:none;fill-rule:nonzero;fill:rgb(98.823529%,98.431373%,98.431373%);fill-opacity:1;" d="M 289.785156 194.792969 C 292.878906 196.945312 294.667969 199.761719 295.429688 203.449219 C 296 207.582031 295.609375 211.644531 293.269531 215.207031 C 291.714844 217.203125 289.753906 218.898438 287.175781 219.277344 C 286.480469 219.324219 285.792969 219.332031 285.09375 219.324219 C 284.847656 219.320312 284.605469 219.320312 284.355469 219.316406 C 282.539062 219.261719 281.179688 219.011719 279.710938 217.882812 C 279.515625 217.742188 279.316406 217.605469 279.113281 217.464844 C 277.519531 216.25 276.625 214.816406 275.8125 213.003906 C 275.710938 212.777344 275.605469 212.550781 275.5 212.320312 C 274.128906 208.699219 274.300781 203.707031 275.730469 200.148438 C 277.039062 197.574219 279.164062 195.019531 281.941406 193.96875 C 284.496094 193.410156 287.46875 193.5 289.785156 194.792969 Z M 289.785156 194.792969 "/>
<path style=" stroke:none;fill-rule:nonzero;fill:rgb(98.823529%,98.039216%,98.039216%);fill-opacity:1;" d="M 120.84375 137.503906 C 127.683594 137.3125 133.164062 139.910156 138.195312 144.433594 C 138.828125 145.046875 139.425781 145.679688 140.019531 146.335938 C 140.308594 146.632812 140.59375 146.929688 140.890625 147.230469 C 141.609375 149.007812 140.941406 150.433594 140.34375 152.191406 C 140.222656 152.550781 140.222656 152.550781 140.101562 152.917969 C 139.027344 156.078125 137.871094 159.089844 136.121094 161.945312 C 135.472656 160.972656 135.136719 160.121094 134.738281 159.019531 C 132.632812 153.476562 129.453125 148.953125 124.058594 146.234375 C 116.511719 142.992188 108.222656 144.191406 100.6875 146.828125 C 99.183594 147.347656 99.183594 147.347656 98.109375 146.988281 C 105.109375 141.574219 111.859375 137.988281 120.84375 137.503906 Z M 120.84375 137.503906 "/>
<path style=" stroke:none;fill-rule:nonzero;fill:rgb(98.823529%,98.431373%,98.431373%);fill-opacity:1;" d="M 296.605469 129.101562 C 298.75 130.664062 300.0625 132.753906 300.828125 135.28125 C 300.992188 136.730469 300.992188 136.730469 301.15625 138.207031 C 294.507812 138.207031 287.859375 138.207031 281.011719 138.207031 C 281.441406 134.78125 282.511719 131.925781 285.148438 129.578125 C 288.488281 127.050781 292.992188 127.109375 296.605469 129.101562 Z M 296.605469 129.101562 "/>
<path style=" stroke:none;fill-rule:nonzero;fill:rgb(92.54902%,9.019608%,9.803922%);fill-opacity:1;" d="M 298.878906 119.996094 C 302.023438 120.355469 304.863281 122.609375 307.003906 124.875 C 308.125 126.3125 309.144531 127.777344 309.925781 129.429688 C 309.605469 129.589844 309.605469 129.589844 309.277344 129.753906 C 309.09375 129.429688 309.09375 129.429688 308.90625 129.097656 C 307.972656 127.484375 307.101562 126.113281 305.703125 124.875 C 305.59375 125.089844 305.488281 125.304688 305.378906 125.523438 C 305.269531 125.203125 305.164062 124.882812 305.054688 124.550781 C 304.730469 124.550781 304.410156 124.550781 304.078125 124.550781 C 304.070312 124.300781 304.066406 124.054688 304.058594 123.796875 C 303.957031 123.507812 303.855469 123.222656 303.753906 122.921875 C 302.65625 122.375 302.65625 122.375 301.480469 121.949219 C 301.148438 121.628906 300.820312 121.304688 300.503906 120.972656 C 299.660156 120.585938 299.660156 120.585938 298.878906 120.320312 C 298.878906 120.214844 298.878906 120.109375 298.878906 119.996094 Z M 298.878906 119.996094 "/>
<path style=" stroke:none;fill-rule:nonzero;fill:rgb(92.941177%,9.411765%,10.588235%);fill-opacity:1;" d="M 183.226562 115.769531 C 183.441406 115.769531 183.65625 115.769531 183.875 115.769531 C 184.140625 116.929688 184.238281 118 184.234375 119.191406 C 184.230469 119.6875 184.230469 119.6875 184.230469 120.195312 C 184.226562 120.539062 184.222656 120.882812 184.222656 121.238281 C 184.21875 121.585938 184.21875 121.9375 184.21875 122.296875 C 184.214844 123.15625 184.207031 124.015625 184.203125 124.875 C 183.988281 124.980469 183.773438 125.089844 183.550781 125.199219 C 183.535156 124.882812 183.519531 124.5625 183.503906 124.234375 C 183.359375 121.421875 183.359375 121.421875 182.839844 118.65625 C 182.570312 117.371094 182.578125 116.882812 183.226562 115.769531 Z M 183.226562 115.769531 "/>
<path style=" stroke:none;fill-rule:nonzero;fill:rgb(93.333334%,8.627451%,9.803922%);fill-opacity:1;" d="M 153.339844 128.777344 C 153.445312 128.777344 153.554688 128.777344 153.664062 128.777344 C 153.742188 130.683594 153.445312 132.386719 153.035156 134.246094 C 152.976562 134.523438 152.914062 134.800781 152.855469 135.089844 C 152.414062 137.136719 152.414062 137.136719 152.039062 137.882812 C 151.609375 137.667969 151.179688 137.453125 150.738281 137.234375 C 150.738281 136.695312 150.738281 136.160156 150.738281 135.605469 C 151.167969 135.390625 151.597656 135.175781 152.039062 134.957031 C 151.71875 134.957031 151.394531 134.957031 151.066406 134.957031 C 150.957031 134.527344 150.851562 134.097656 150.738281 133.65625 C 151.367188 133.472656 151.367188 133.472656 152.039062 133.328125 C 152.144531 133.4375 152.253906 133.542969 152.363281 133.65625 C 152.578125 132.6875 152.792969 131.722656 153.015625 130.726562 C 152.800781 130.621094 152.585938 130.515625 152.363281 130.402344 C 152.6875 130.402344 153.007812 130.402344 153.339844 130.402344 C 153.339844 129.867188 153.339844 129.332031 153.339844 128.777344 Z M 153.339844 128.777344 "/>
<path style=" stroke:none;fill-rule:nonzero;fill:rgb(92.156863%,5.490196%,5.882353%);fill-opacity:1;" d="M 350.859375 119.671875 C 354.074219 119.671875 357.292969 119.671875 360.605469 119.671875 C 360.929688 121.296875 360.929688 121.296875 360.605469 121.882812 C 360.171875 122.339844 359.738281 122.792969 359.304688 123.25 C 359.304688 122.273438 359.304688 122.273438 359.632812 121.625 C 359.417969 121.625 359.203125 121.625 358.980469 121.625 C 359.089844 121.195312 359.195312 120.765625 359.304688 120.320312 C 355.125 120.160156 355.125 120.160156 350.859375 119.996094 C 350.859375 119.890625 350.859375 119.78125 350.859375 119.671875 Z M 350.859375 119.671875 "/>
<path style=" stroke:none;fill-rule:nonzero;fill:rgb(92.156863%,3.137255%,4.313726%);fill-opacity:1;" d="M 182.902344 190.5625 C 183.007812 190.5625 183.117188 190.5625 183.226562 190.5625 C 183.972656 194.890625 183.761719 198.898438 183.226562 203.246094 C 183.121094 203.246094 183.011719 203.246094 182.902344 203.246094 C 182.902344 199.0625 182.902344 194.875 182.902344 190.5625 Z M 182.902344 190.5625 "/>
<path style=" stroke:none;fill-rule:nonzero;fill:rgb(92.54902%,7.843138%,8.235294%);fill-opacity:1;" d="M 171.855469 161.945312 C 173.15625 162.40625 174.175781 163.027344 175.289062 163.835938 C 175.589844 164.054688 175.890625 164.269531 176.203125 164.496094 C 177.058594 165.203125 177.695312 165.933594 178.355469 166.824219 C 178.140625 166.824219 177.925781 166.824219 177.703125 166.824219 C 177.597656 167.148438 177.488281 167.46875 177.378906 167.800781 C 177.164062 167.695312 176.949219 167.585938 176.730469 167.476562 C 176.835938 167.046875 176.945312 166.617188 177.054688 166.175781 C 176.351562 166.175781 175.777344 166.320312 175.105469 166.5 C 175.105469 166.179688 175.105469 165.855469 175.105469 165.523438 C 175.320312 165.523438 175.535156 165.523438 175.753906 165.523438 C 174.855469 164.566406 173.96875 163.757812 172.890625 163.003906 C 172.550781 162.761719 172.207031 162.519531 171.855469 162.273438 C 171.855469 162.164062 171.855469 162.058594 171.855469 161.945312 Z M 171.855469 161.945312 "/>
<path style=" stroke:none;fill-rule:nonzero;fill:rgb(92.54902%,10.980392%,10.980392%);fill-opacity:1;" d="M 281.011719 121.296875 C 280.90625 121.511719 280.796875 121.726562 280.6875 121.949219 C 280.902344 122.054688 281.117188 122.164062 281.335938 122.273438 C 280.976562 122.375 280.613281 122.476562 280.242188 122.578125 C 279.128906 122.867188 279.128906 122.867188 278.414062 123.25 C 278.046875 123.90625 278.046875 123.90625 277.765625 124.550781 C 276.464844 124.550781 276.464844 124.550781 275.8125 124.226562 C 279.574219 120.816406 279.574219 120.816406 281.011719 121.296875 Z M 281.011719 121.296875 "/>
<path style=" stroke:none;fill-rule:nonzero;fill:rgb(92.156863%,7.450981%,8.235294%);fill-opacity:1;" d="M 159.835938 164.222656 C 160.15625 164.652344 160.480469 165.082031 160.8125 165.523438 C 160.597656 165.523438 160.382812 165.523438 160.160156 165.523438 C 160.054688 166.167969 159.945312 166.8125 159.835938 167.476562 C 160.15625 167.582031 160.480469 167.691406 160.8125 167.800781 C 160.140625 168.804688 159.890625 168.941406 158.859375 169.425781 C 158.648438 169.640625 158.433594 169.855469 158.210938 170.078125 C 158.425781 168.847656 158.769531 167.730469 159.207031 166.5625 C 159.324219 166.242188 159.441406 165.925781 159.5625 165.597656 C 159.699219 165.242188 159.699219 165.242188 159.835938 164.875 C 159.300781 164.875 158.765625 164.875 158.210938 164.875 C 158.210938 164.765625 158.210938 164.660156 158.210938 164.546875 C 158.746094 164.441406 159.285156 164.335938 159.835938 164.222656 Z M 159.835938 164.222656 "/>
<path style=" stroke:none;fill-rule:nonzero;fill:rgb(92.941177%,7.843138%,8.627451%);fill-opacity:1;" d="M 196.871094 161.621094 C 197.085938 161.621094 197.300781 161.621094 197.519531 161.621094 C 197.734375 161.945312 197.949219 162.265625 198.171875 162.597656 C 198.707031 162.492188 199.242188 162.382812 199.796875 162.273438 C 199.714844 162.582031 199.632812 162.890625 199.550781 163.207031 C 199.320312 164.6875 199.890625 165.78125 200.503906 167.105469 C 200.59375 167.335938 200.679688 167.566406 200.769531 167.800781 C 200.664062 168.015625 200.554688 168.230469 200.445312 168.453125 C 200.179688 167.917969 200.179688 167.917969 199.910156 167.371094 C 199.675781 166.898438 199.441406 166.425781 199.207031 165.953125 C 199.089844 165.714844 198.972656 165.480469 198.855469 165.242188 C 198.238281 164.003906 197.605469 162.796875 196.871094 161.621094 Z M 196.871094 161.621094 "/>
<path style=" stroke:none;fill-rule:nonzero;fill:rgb(93.333334%,9.411765%,10.588235%);fill-opacity:1;" d="M 180.304688 101.460938 C 180.953125 101.785156 180.953125 101.785156 181.230469 102.402344 C 182.0625 104.945312 182.0625 104.945312 181.925781 106.339844 C 181.792969 106.132812 181.660156 105.921875 181.519531 105.707031 C 180.894531 104.96875 180.589844 104.84375 179.652344 104.710938 C 179.652344 104.070312 179.652344 103.425781 179.652344 102.761719 C 179.867188 102.65625 180.082031 102.546875 180.304688 102.4375 C 180.304688 102.113281 180.304688 101.792969 180.304688 101.460938 Z M 180.304688 101.460938 "/>
<path style=" stroke:none;fill-rule:nonzero;fill:rgb(92.156863%,3.921569%,4.313726%);fill-opacity:1;" d="M 354.46875 214.859375 C 354.785156 214.863281 355.105469 214.863281 355.433594 214.867188 C 355.765625 214.875 356.101562 214.882812 356.441406 214.894531 C 356.78125 214.898438 357.117188 214.902344 357.460938 214.90625 C 358.292969 214.917969 359.125 214.933594 359.957031 214.953125 C 359.957031 215.0625 359.957031 215.167969 359.957031 215.28125 C 359.761719 215.289062 359.570312 215.296875 359.371094 215.304688 C 358.496094 215.339844 357.621094 215.382812 356.746094 215.421875 C 356.441406 215.433594 356.140625 215.445312 355.824219 215.460938 C 355.386719 215.480469 355.386719 215.480469 354.941406 215.5 C 354.539062 215.519531 354.539062 215.519531 354.128906 215.539062 C 353.4375 215.566406 353.4375 215.566406 352.808594 215.929688 C 352.914062 216.464844 353.023438 217.003906 353.132812 217.554688 C 352.703125 217.664062 352.277344 217.769531 351.835938 217.882812 C 351.714844 216.097656 351.714844 216.097656 352.222656 215.382812 C 353.007812 214.808594 353.5 214.84375 354.46875 214.859375 Z M 354.46875 214.859375 "/>
<path style=" stroke:none;fill-rule:nonzero;fill:rgb(92.156863%,8.627451%,10.196079%);fill-opacity:1;" d="M 196.871094 201.621094 C 197.085938 201.726562 197.300781 201.835938 197.519531 201.945312 C 197.414062 202.179688 197.304688 202.414062 197.195312 202.65625 C 196.867188 203.578125 196.816406 204.230469 196.871094 205.199219 C 196.507812 205.238281 196.507812 205.238281 196.140625 205.28125 C 195.082031 205.570312 194.660156 206.007812 193.945312 206.824219 C 194.414062 205.535156 195.03125 204.453125 195.773438 203.308594 C 195.980469 202.992188 196.183594 202.671875 196.394531 202.347656 C 196.632812 201.988281 196.632812 201.988281 196.871094 201.621094 Z M 196.871094 201.621094 "/>
<path style=" stroke:none;fill-rule:nonzero;fill:rgb(92.54902%,9.019608%,10.196079%);fill-opacity:1;" d="M 331.691406 124.875 C 332.921875 126.046875 333.933594 127.261719 334.898438 128.65625 C 335.035156 128.839844 335.167969 129.027344 335.308594 129.21875 C 335.691406 129.765625 335.691406 129.765625 336.242188 130.726562 C 336.132812 131.050781 336.027344 131.371094 335.914062 131.703125 C 335.714844 131.3125 335.714844 131.3125 335.507812 130.910156 C 335.027344 130.03125 335.027344 130.03125 334.230469 129.8125 C 334.035156 129.792969 333.839844 129.773438 333.640625 129.753906 C 333.640625 129.539062 333.640625 129.324219 333.640625 129.101562 C 333.425781 128.996094 333.210938 128.886719 332.992188 128.777344 C 333.207031 128.671875 333.421875 128.5625 333.640625 128.453125 C 333.5 128.25 333.359375 128.042969 333.214844 127.835938 C 333.035156 127.570312 332.851562 127.304688 332.667969 127.03125 C 332.484375 126.765625 332.304688 126.5 332.117188 126.230469 C 331.691406 125.523438 331.691406 125.523438 331.691406 124.875 Z M 331.691406 124.875 "/>
<path style=" stroke:none;fill-rule:nonzero;fill:rgb(92.156863%,9.411765%,10.196079%);fill-opacity:1;" d="M 90.964844 145.363281 C 91.179688 145.46875 91.390625 145.578125 91.613281 145.6875 C 91.507812 146.050781 91.398438 146.410156 91.289062 146.785156 C 90.933594 147.863281 90.933594 147.863281 90.964844 148.613281 C 90.425781 148.613281 89.890625 148.613281 89.339844 148.613281 C 89.230469 149.257812 89.125 149.902344 89.015625 150.566406 C 88.679688 149.695312 88.664062 149.335938 88.988281 148.449219 C 89.140625 148.167969 89.289062 147.886719 89.441406 147.597656 C 89.585938 147.316406 89.734375 147.03125 89.882812 146.742188 C 90.3125 146.011719 90.3125 146.011719 90.964844 145.363281 Z M 90.964844 145.363281 "/>
<path style=" stroke:none;fill-rule:nonzero;fill:rgb(93.725491%,6.666667%,6.666667%);fill-opacity:1;" d="M 284.585938 227.3125 C 284.800781 227.3125 285.015625 227.3125 285.234375 227.3125 C 285.34375 227.527344 285.449219 227.742188 285.5625 227.960938 C 286.214844 228.332031 286.214844 228.332031 286.859375 228.613281 C 281.746094 228.730469 281.746094 228.730469 279.386719 227.960938 C 279.386719 227.855469 279.386719 227.746094 279.386719 227.636719 C 281.101562 227.742188 282.820312 227.851562 284.585938 227.960938 C 284.585938 227.746094 284.585938 227.53125 284.585938 227.3125 Z M 284.585938 227.3125 "/>
<path style=" stroke:none;fill-rule:nonzero;fill:rgb(92.156863%,9.019608%,9.411765%);fill-opacity:1;" d="M 327.144531 208.449219 C 328.164062 208.960938 328.304688 209.96875 328.667969 210.992188 C 328.742188 211.195312 328.820312 211.398438 328.902344 211.609375 C 329.296875 212.722656 329.558594 213.511719 329.09375 214.628906 C 328.878906 214.308594 328.664062 213.984375 328.445312 213.652344 C 328.121094 213.652344 327.800781 213.652344 327.46875 213.652344 C 327.597656 213.4375 327.722656 213.222656 327.855469 213.003906 C 328.191406 211.757812 327.890625 211.179688 327.378906 210.03125 C 327.144531 209.425781 327.144531 209.425781 327.144531 208.449219 Z M 327.144531 208.449219 "/>
<path style=" stroke:none;fill-rule:nonzero;fill:rgb(92.941177%,6.27451%,6.666667%);fill-opacity:1;" d="M 153.988281 87.152344 C 154.523438 87.257812 155.058594 87.367188 155.613281 87.476562 C 155.398438 89.839844 155.183594 92.199219 154.960938 94.632812 C 154.855469 94.632812 154.75 94.632812 154.636719 94.632812 C 154.636719 92.699219 154.636719 90.769531 154.636719 88.777344 C 154.316406 88.671875 153.996094 88.5625 153.664062 88.453125 C 153.769531 88.023438 153.878906 87.59375 153.988281 87.152344 Z M 153.988281 87.152344 "/>
<path style=" stroke:none;fill-rule:nonzero;fill:rgb(92.941177%,7.450981%,8.235294%);fill-opacity:1;" d="M 148.464844 89.101562 C 148.574219 89.101562 148.679688 89.101562 148.789062 89.101562 C 148.898438 89.746094 149.003906 90.390625 149.117188 91.054688 C 149.542969 90.839844 149.972656 90.625 150.414062 90.40625 C 150.414062 91.378906 150.414062 91.378906 150.089844 92.03125 C 149.875 92.03125 149.660156 92.03125 149.441406 92.03125 C 149.546875 92.566406 149.65625 93.101562 149.765625 93.65625 C 149.441406 93.65625 149.121094 93.65625 148.789062 93.65625 C 148.683594 93.871094 148.574219 94.085938 148.464844 94.304688 C 148.464844 92.589844 148.464844 90.871094 148.464844 89.101562 Z M 148.464844 89.101562 "/>
<path style=" stroke:none;fill-rule:nonzero;fill:rgb(92.54902%,6.666667%,7.058824%);fill-opacity:1;" d="M 327.46875 137.234375 C 328.273438 137.554688 328.273438 137.554688 329.09375 137.882812 C 329.09375 138.203125 329.09375 138.527344 329.09375 138.859375 C 329.660156 139.695312 330.277344 140.480469 330.902344 141.273438 C 331.367188 142.109375 331.367188 142.109375 331.316406 143.007812 C 331.042969 143.734375 331.042969 143.734375 330.390625 144.0625 C 330.480469 143.839844 330.566406 143.621094 330.65625 143.394531 C 330.75 141.941406 329.984375 141.207031 329.113281 140.097656 C 327.46875 137.949219 327.46875 137.949219 327.46875 137.234375 Z M 327.46875 137.234375 "/>
<path style=" stroke:none;fill-rule:nonzero;fill:rgb(93.333334%,9.803922%,10.588235%);fill-opacity:1;" d="M 144.242188 191.539062 C 144.511719 192.480469 144.566406 193.128906 144.566406 194.140625 C 143.917969 194.710938 143.917969 194.710938 143.265625 195.117188 C 143.054688 194.902344 142.839844 194.6875 142.617188 194.46875 C 142.296875 194.628906 142.296875 194.628906 141.96875 194.792969 C 142.511719 193.511719 143.339844 192.585938 144.242188 191.539062 Z M 144.242188 191.539062 "/>
<path style=" stroke:none;fill-rule:nonzero;fill:rgb(92.54902%,6.27451%,7.058824%);fill-opacity:1;" d="M 150.738281 165.851562 C 150.953125 165.851562 151.167969 165.851562 151.390625 165.851562 C 151.390625 166.0625 151.390625 166.277344 151.390625 166.5 C 151.925781 166.394531 152.460938 166.285156 153.015625 166.175781 C 151.859375 167.132812 150.605469 167.738281 149.257812 168.371094 C 149.039062 168.476562 148.820312 168.582031 148.59375 168.695312 C 146.957031 169.464844 146.957031 169.464844 145.867188 169.101562 C 146.191406 168.949219 146.515625 168.796875 146.851562 168.636719 C 147.273438 168.433594 147.695312 168.230469 148.121094 168.023438 C 148.335938 167.925781 148.546875 167.824219 148.769531 167.71875 C 149.332031 167.445312 149.875 167.136719 150.414062 166.824219 C 150.523438 166.503906 150.628906 166.179688 150.738281 165.851562 Z M 150.738281 165.851562 "/>
<path style=" stroke:none;fill-rule:nonzero;fill:rgb(98.431373%,90.588236%,90.980393%);fill-opacity:1;" d="M 101.359375 144.386719 C 101.574219 144.492188 101.789062 144.601562 102.007812 144.710938 C 102.007812 145.140625 102.007812 145.570312 102.007812 146.011719 C 101.082031 146.632812 100.574219 146.8125 99.511719 147.027344 C 99.25 147.082031 98.988281 147.136719 98.714844 147.195312 C 98.515625 147.234375 98.316406 147.273438 98.109375 147.3125 C 99.140625 146.253906 100.191406 145.289062 101.359375 144.386719 Z M 101.359375 144.386719 "/>
<path style=" stroke:none;fill-rule:nonzero;fill:rgb(92.156863%,6.27451%,6.27451%);fill-opacity:1;" d="M 374.898438 212.679688 C 375.542969 212.890625 376.1875 213.105469 376.847656 213.328125 C 376.875 214.066406 376.894531 214.804688 376.910156 215.542969 C 376.921875 215.953125 376.933594 216.367188 376.945312 216.789062 C 376.847656 217.882812 376.847656 217.882812 376.359375 218.515625 C 376.199219 218.628906 376.039062 218.742188 375.875 218.855469 C 375.914062 218.648438 375.953125 218.441406 375.992188 218.226562 C 376.308594 216.082031 376.121094 215.105469 374.898438 213.328125 C 374.898438 213.113281 374.898438 212.898438 374.898438 212.679688 Z M 374.898438 212.679688 "/>
<path style=" stroke:none;fill-rule:nonzero;fill:rgb(92.54902%,6.666667%,7.843138%);fill-opacity:1;" d="M 121.175781 135.605469 C 121.5 135.714844 121.820312 135.820312 122.152344 135.929688 C 122.152344 136.253906 122.152344 136.574219 122.152344 136.90625 C 122.472656 137.121094 122.792969 137.335938 123.125 137.558594 C 121.625 137.558594 120.125 137.558594 118.578125 137.558594 C 118.578125 137.449219 118.578125 137.34375 118.578125 137.234375 C 119.113281 137.234375 119.648438 137.234375 120.203125 137.234375 C 120.203125 136.910156 120.203125 136.589844 120.203125 136.257812 C 120.523438 136.257812 120.84375 136.257812 121.175781 136.257812 C 121.175781 136.042969 121.175781 135.828125 121.175781 135.605469 Z M 121.175781 135.605469 "/>
<path style=" stroke:none;fill-rule:nonzero;fill:rgb(92.54902%,16.078432%,17.254902%);fill-opacity:1;" d="M 376.847656 196.417969 C 377.0625 196.632812 377.277344 196.847656 377.5 197.070312 C 378.382812 197.1875 378.382812 197.1875 379.410156 197.203125 C 379.789062 197.214844 380.167969 197.226562 380.558594 197.242188 C 381.15625 197.257812 381.15625 197.257812 381.761719 197.273438 C 382.164062 197.285156 382.5625 197.296875 382.972656 197.308594 C 383.964844 197.339844 384.953125 197.367188 385.945312 197.394531 C 385.945312 197.5 385.945312 197.609375 385.945312 197.71875 C 382.945312 197.824219 379.941406 197.933594 376.847656 198.042969 C 376.742188 197.613281 376.632812 197.183594 376.523438 196.742188 C 376.632812 196.636719 376.738281 196.527344 376.847656 196.417969 Z M 376.847656 196.417969 "/>
<path style=" stroke:none;fill-rule:nonzero;fill:rgb(92.54902%,7.450981%,7.843138%);fill-opacity:1;" d="M 281.335938 218.855469 C 283.050781 219.070312 284.769531 219.285156 286.535156 219.507812 C 286.535156 219.613281 286.535156 219.722656 286.535156 219.832031 C 285.140625 219.832031 283.746094 219.832031 282.3125 219.832031 C 282.203125 220.152344 282.097656 220.476562 281.988281 220.808594 C 281.664062 220.699219 281.34375 220.59375 281.011719 220.484375 C 281.011719 220.269531 281.011719 220.054688 281.011719 219.832031 C 281.226562 219.832031 281.441406 219.832031 281.664062 219.832031 C 281.554688 219.511719 281.449219 219.1875 281.335938 218.855469 Z M 281.335938 218.855469 "/>
<path style=" stroke:none;fill-rule:nonzero;fill:rgb(92.941177%,7.843138%,8.235294%);fill-opacity:1;" d="M 317.074219 122.597656 C 317.214844 122.757812 317.355469 122.921875 317.5 123.085938 C 318.046875 123.683594 318.046875 123.683594 319.023438 123.574219 C 319.054688 123.824219 319.089844 124.070312 319.125 124.328125 C 319.269531 125.207031 319.269531 125.207031 319.835938 125.6875 C 320.484375 126.339844 320.527344 126.910156 320.648438 127.800781 C 319.1875 126.46875 318.054688 124.96875 317.074219 123.25 C 317.074219 123.035156 317.074219 122.820312 317.074219 122.597656 Z M 317.074219 122.597656 "/>
<path style=" stroke:none;fill-rule:nonzero;fill:rgb(94.117647%,27.058825%,27.843139%);fill-opacity:1;" d="M 154.960938 89.753906 C 155.070312 89.753906 155.175781 89.753906 155.289062 89.753906 C 155.289062 91.792969 155.289062 93.832031 155.289062 95.933594 C 155.074219 95.933594 154.859375 95.933594 154.636719 95.933594 C 154.53125 96.363281 154.421875 96.792969 154.3125 97.234375 C 154.3125 96.160156 154.3125 95.085938 154.3125 93.980469 C 154.421875 93.980469 154.527344 93.980469 154.636719 93.980469 C 154.746094 92.585938 154.851562 91.191406 154.960938 89.753906 Z M 154.960938 89.753906 "/>
<path style=" stroke:none;fill-rule:nonzero;fill:rgb(92.54902%,8.627451%,9.411765%);fill-opacity:1;" d="M 137.746094 220.484375 C 137.164062 220.917969 136.582031 221.351562 136 221.78125 C 135.675781 222.023438 135.351562 222.265625 135.015625 222.515625 C 134.171875 223.085938 134.171875 223.085938 133.523438 223.085938 C 134.089844 221.824219 134.089844 221.824219 134.820312 221.457031 C 135.042969 221.214844 135.042969 221.214844 135.269531 220.96875 C 136.078125 220.222656 136.742188 219.980469 137.746094 220.484375 Z M 137.746094 220.484375 "/>
<path style=" stroke:none;fill-rule:nonzero;fill:rgb(92.156863%,8.627451%,9.411765%);fill-opacity:1;" d="M 152.6875 204.546875 C 152.929688 205.113281 152.929688 205.113281 153.015625 205.847656 C 152.476562 206.542969 152.476562 206.542969 151.734375 207.230469 C 151.492188 207.460938 151.246094 207.691406 150.996094 207.925781 C 150.804688 208.097656 150.613281 208.273438 150.414062 208.449219 C 150.414062 207.476562 150.414062 207.476562 150.902344 206.925781 C 151.0625 206.785156 151.222656 206.644531 151.390625 206.5 C 151.28125 206.285156 151.175781 206.070312 151.0625 205.847656 C 151.171875 205.527344 151.277344 205.203125 151.390625 204.875 C 152.058594 204.648438 152.058594 204.648438 152.6875 204.546875 Z M 152.6875 204.546875 "/>
<path style=" stroke:none;fill-rule:nonzero;fill:rgb(92.941177%,9.019608%,10.196079%);fill-opacity:1;" d="M 290.433594 185.035156 C 292.953125 185.28125 292.953125 185.28125 293.683594 186.011719 C 293.359375 186.117188 293.039062 186.226562 292.707031 186.335938 C 292.707031 186.550781 292.707031 186.765625 292.707031 186.988281 C 291.914062 186.867188 291.914062 186.867188 291.082031 186.664062 C 290.976562 186.449219 290.867188 186.234375 290.757812 186.011719 C 290.867188 185.796875 290.972656 185.582031 291.082031 185.359375 C 290.867188 185.253906 290.65625 185.148438 290.433594 185.035156 Z M 290.433594 185.035156 "/>
<path style=" stroke:none;fill-rule:nonzero;fill:rgb(92.54902%,7.058824%,7.843138%);fill-opacity:1;" d="M 163.085938 155.445312 C 161.214844 156.417969 161.214844 156.417969 160.484375 156.417969 C 160.484375 156.847656 160.484375 157.277344 160.484375 157.71875 C 159.628906 157.71875 158.769531 157.71875 157.886719 157.71875 C 158.628906 156.605469 159.101562 156.390625 160.304688 155.851562 C 160.617188 155.703125 160.933594 155.558594 161.257812 155.40625 C 162.109375 155.117188 162.109375 155.117188 163.085938 155.445312 Z M 163.085938 155.445312 "/>
<path style=" stroke:none;fill-rule:nonzero;fill:rgb(92.941177%,9.019608%,9.803922%);fill-opacity:1;" d="M 335.265625 225.359375 C 335.585938 225.359375 335.910156 225.359375 336.242188 225.359375 C 336.15625 225.828125 336.066406 226.296875 335.976562 226.761719 C 335.925781 227.023438 335.878906 227.285156 335.828125 227.550781 C 335.566406 228.363281 335.257812 228.71875 334.617188 229.261719 C 334.675781 228.960938 334.738281 228.660156 334.796875 228.347656 C 335.019531 227.308594 335.019531 227.308594 334.617188 226.335938 C 334.832031 226.015625 335.042969 225.691406 335.265625 225.359375 Z M 335.265625 225.359375 "/>
<path style=" stroke:none;fill-rule:nonzero;fill:rgb(92.941177%,7.450981%,7.450981%);fill-opacity:1;" d="M 144.242188 169.101562 C 144.347656 169.316406 144.457031 169.53125 144.566406 169.75 C 144.890625 169.859375 145.210938 169.964844 145.542969 170.078125 C 144.960938 170.464844 144.378906 170.851562 143.796875 171.234375 C 143.308594 171.558594 143.308594 171.558594 142.8125 171.886719 C 142.535156 172.042969 142.253906 172.195312 141.96875 172.351562 C 141.753906 172.246094 141.539062 172.140625 141.320312 172.027344 C 141.621094 171.847656 141.921875 171.667969 142.230469 171.480469 C 143.25 170.742188 143.6875 170.207031 144.242188 169.101562 Z M 144.242188 169.101562 "/>
<path style=" stroke:none;fill-rule:nonzero;fill:rgb(93.725491%,25.882354%,26.274511%);fill-opacity:1;" d="M 283.609375 219.179688 C 284.789062 219.179688 285.96875 219.179688 287.183594 219.179688 C 287.078125 219.71875 286.96875 220.253906 286.859375 220.808594 C 286.324219 220.699219 285.789062 220.59375 285.234375 220.484375 C 285.234375 220.269531 285.234375 220.054688 285.234375 219.832031 C 284.699219 219.726562 284.164062 219.617188 283.609375 219.507812 C 283.609375 219.398438 283.609375 219.292969 283.609375 219.179688 Z M 283.609375 219.179688 "/>
<path style=" stroke:none;fill-rule:nonzero;fill:rgb(92.156863%,8.627451%,9.411765%);fill-opacity:1;" d="M 295.957031 186.988281 C 297.082031 187.394531 297.953125 187.855469 298.878906 188.613281 C 298.773438 188.933594 298.664062 189.257812 298.554688 189.589844 C 297.886719 189.8125 297.886719 189.8125 297.257812 189.914062 C 297.28125 189.671875 297.308594 189.429688 297.335938 189.183594 C 297.234375 188.035156 296.816406 187.714844 295.957031 186.988281 Z M 295.957031 186.988281 "/>
<path style=" stroke:none;fill-rule:nonzero;fill:rgb(93.333334%,15.294118%,17.254902%);fill-opacity:1;" d="M 365.152344 184.386719 C 365.582031 184.386719 366.011719 184.386719 366.453125 184.386719 C 366.167969 185.929688 366.167969 185.929688 365.804688 186.664062 C 365.375 186.664062 364.945312 186.664062 364.503906 186.664062 C 364.71875 185.910156 364.933594 185.160156 365.152344 184.386719 Z M 365.152344 184.386719 "/>
<path style=" stroke:none;fill-rule:nonzero;fill:rgb(92.941177%,8.627451%,9.019608%);fill-opacity:1;" d="M 201.09375 169.75 C 201.972656 170.6875 202.378906 171.152344 202.476562 172.457031 C 202.449219 172.742188 202.421875 173.03125 202.394531 173.328125 C 202.070312 173.488281 202.070312 173.488281 201.746094 173.65625 C 201.375 172.265625 201.09375 171.195312 201.09375 169.75 Z M 201.09375 169.75 "/>
<path style=" stroke:none;fill-rule:nonzero;fill:rgb(92.156863%,7.450981%,7.843138%);fill-opacity:1;" d="M 162.757812 191.539062 C 162.867188 191.753906 162.972656 191.96875 163.085938 192.191406 C 162.441406 193.15625 161.796875 194.121094 161.136719 195.117188 C 161.027344 194.902344 160.921875 194.6875 160.8125 194.46875 C 160.488281 194.359375 160.167969 194.253906 159.835938 194.140625 C 160.8125 193.492188 160.8125 193.492188 161.785156 193.492188 C 161.886719 193.230469 161.984375 192.96875 162.089844 192.699219 C 162.433594 191.867188 162.433594 191.867188 162.757812 191.539062 Z M 162.757812 191.539062 "/>
<path style=" stroke:none;fill-rule:nonzero;fill:rgb(92.54902%,8.235294%,8.235294%);fill-opacity:1;" d="M 84.789062 226.984375 C 85.441406 227.960938 85.441406 227.960938 85.441406 228.613281 C 85.65625 228.613281 85.871094 228.613281 86.089844 228.613281 C 86.089844 229.257812 86.089844 229.898438 86.089844 230.5625 C 85.875 230.5625 85.660156 230.5625 85.441406 230.5625 C 84.980469 229.320312 84.714844 228.316406 84.789062 226.984375 Z M 84.789062 226.984375 "/>
<path style=" stroke:none;fill-rule:nonzero;fill:rgb(92.54902%,7.058824%,7.450981%);fill-opacity:1;" d="M 353.78125 201.621094 C 353.984375 201.882812 354.183594 202.144531 354.390625 202.414062 C 355 203.257812 355 203.257812 355.734375 203.570312 C 355.734375 204.109375 355.734375 204.644531 355.734375 205.199219 C 354.871094 204.394531 354.210938 203.707031 353.78125 202.597656 C 353.78125 202.273438 353.78125 201.953125 353.78125 201.621094 Z M 353.78125 201.621094 "/>
<path style=" stroke:none;fill-rule:nonzero;fill:rgb(93.333334%,17.254902%,17.254902%);fill-opacity:1;" d="M 306.027344 200.644531 C 306.132812 200.644531 306.242188 200.644531 306.351562 200.644531 C 306.460938 201.71875 306.566406 202.792969 306.675781 203.898438 C 306.355469 203.789062 306.035156 203.683594 305.703125 203.570312 C 305.660156 201.378906 305.660156 201.378906 306.027344 200.644531 Z M 306.027344 200.644531 "/>
<path style=" stroke:none;fill-rule:nonzero;fill:rgb(92.156863%,7.843138%,7.843138%);fill-opacity:1;" d="M 278.089844 122.273438 C 278.089844 123.125 277.988281 123.738281 277.765625 124.550781 C 276.464844 124.550781 276.464844 124.550781 275.8125 124.226562 C 276.566406 123.582031 277.316406 122.9375 278.089844 122.273438 Z M 278.089844 122.273438 "/>
<path style=" stroke:none;fill-rule:nonzero;fill:rgb(93.725491%,15.686275%,16.470589%);fill-opacity:1;" d="M 149.441406 111.542969 C 149.546875 111.542969 149.65625 111.542969 149.765625 111.542969 C 149.765625 112.9375 149.765625 114.332031 149.765625 115.769531 C 149.441406 115.769531 149.121094 115.769531 148.789062 115.769531 C 148.789062 115.125 148.789062 114.480469 148.789062 113.820312 C 148.898438 113.820312 149.003906 113.820312 149.117188 113.820312 C 149.222656 113.066406 149.328125 112.316406 149.441406 111.542969 Z M 149.441406 111.542969 "/>
<path style=" stroke:none;fill-rule:nonzero;fill:rgb(92.54902%,7.058824%,8.235294%);fill-opacity:1;" d="M 111.105469 219.507812 C 110.757812 220.199219 110.359375 220.601562 109.804688 221.132812 C 109.699219 220.917969 109.589844 220.703125 109.480469 220.484375 C 108.945312 220.589844 108.410156 220.695312 107.855469 220.808594 C 109.550781 219.507812 109.550781 219.507812 111.105469 219.507812 Z M 111.105469 219.507812 "/>
<path style=" stroke:none;fill-rule:nonzero;fill:rgb(93.333334%,16.470589%,16.862746%);fill-opacity:1;" d="M 188.425781 194.140625 C 188.90625 194.464844 188.90625 194.464844 189.398438 194.792969 C 189.5 195.929688 189.5 195.929688 189.398438 197.070312 C 189.183594 197.28125 188.96875 197.496094 188.75 197.71875 C 188.359375 196.9375 188.390625 196.433594 188.402344 195.5625 C 188.40625 195.296875 188.410156 195.03125 188.414062 194.757812 C 188.417969 194.554688 188.421875 194.351562 188.425781 194.140625 Z M 188.425781 194.140625 "/>
<path style=" stroke:none;fill-rule:nonzero;fill:rgb(93.333334%,7.058824%,7.843138%);fill-opacity:1;" d="M 201.742188 187.3125 C 201.851562 187.3125 201.957031 187.3125 202.070312 187.3125 C 202.195312 187.730469 202.316406 188.152344 202.433594 188.574219 C 202.503906 188.804688 202.570312 189.039062 202.640625 189.28125 C 202.667969 189.488281 202.691406 189.699219 202.71875 189.914062 C 202.503906 190.128906 202.289062 190.34375 202.070312 190.5625 C 201.855469 190.5625 201.640625 190.5625 201.417969 190.5625 C 201.527344 189.492188 201.632812 188.417969 201.742188 187.3125 Z M 201.742188 187.3125 "/>
<path style=" stroke:none;fill-rule:nonzero;fill:rgb(98.039216%,94.901961%,95.294118%);fill-opacity:1;" d="M 338.1875 132.03125 C 338.617188 132.242188 339.046875 132.457031 339.488281 132.679688 C 339.273438 133.214844 339.058594 133.753906 338.839844 134.304688 C 338.625 134.304688 338.410156 134.304688 338.1875 134.304688 C 337.886719 133.328125 337.851562 133.046875 338.1875 132.03125 Z M 338.1875 132.03125 "/>
<path style=" stroke:none;fill-rule:nonzero;fill:rgb(92.941177%,10.196079%,10.196079%);fill-opacity:1;" d="M 260.546875 126.828125 C 261.695312 128.027344 261.710938 129.132812 261.84375 130.726562 C 260.695312 129.527344 260.679688 128.421875 260.546875 126.828125 Z M 260.546875 126.828125 "/>
<path style=" stroke:none;fill-rule:nonzero;fill:rgb(92.54902%,17.254902%,18.431373%);fill-opacity:1;" d="M 229.683594 122.597656 C 229.898438 122.921875 230.113281 123.242188 230.332031 123.574219 C 230.011719 123.734375 230.011719 123.734375 229.683594 123.898438 C 229.574219 124.222656 229.46875 124.542969 229.359375 124.875 C 229.144531 124.875 228.929688 124.875 228.707031 124.875 C 228.601562 124.554688 228.492188 124.230469 228.382812 123.898438 C 228.8125 123.46875 229.242188 123.039062 229.683594 122.597656 Z M 230.332031 122.921875 C 231.308594 123.25 231.308594 123.25 231.308594 123.25 Z M 230.332031 122.921875 "/>
<path style=" stroke:none;fill-rule:nonzero;fill:rgb(92.941177%,9.019608%,10.588235%);fill-opacity:1;" d="M 348.585938 119.996094 C 349.238281 120.089844 349.886719 120.199219 350.535156 120.320312 C 350.210938 120.429688 349.890625 120.535156 349.558594 120.648438 C 349.453125 120.863281 349.34375 121.078125 349.234375 121.296875 C 348.402344 121.5 348.402344 121.5 347.609375 121.625 C 348.21875 120.363281 348.21875 120.363281 348.585938 119.996094 Z M 348.585938 119.996094 "/>
<path style=" stroke:none;fill-rule:nonzero;fill:rgb(98.431373%,95.294118%,95.294118%);fill-opacity:1;" d="M 155.9375 115.445312 C 156.042969 115.445312 156.152344 115.445312 156.261719 115.445312 C 156.15625 116.515625 156.046875 117.589844 155.9375 118.695312 C 155.722656 118.589844 155.507812 118.480469 155.289062 118.371094 C 155.207031 116.542969 155.207031 116.542969 155.9375 115.445312 Z M 155.9375 115.445312 "/>
<path style=" stroke:none;fill-rule:nonzero;fill:rgb(92.54902%,8.235294%,8.235294%);fill-opacity:1;" d="M 175.105469 105.363281 C 175.753906 106.015625 175.753906 106.015625 175.753906 106.988281 C 175.96875 106.988281 176.183594 106.988281 176.40625 106.988281 C 176.40625 107.527344 176.40625 108.0625 176.40625 108.617188 C 176.191406 108.617188 175.976562 108.617188 175.753906 108.617188 C 175.328125 107.4375 175.105469 106.632812 175.105469 105.363281 Z M 175.105469 105.363281 "/>
<path style=" stroke:none;fill-rule:nonzero;fill:rgb(92.941177%,7.843138%,8.627451%);fill-opacity:1;" d="M 384.644531 220.484375 C 385.074219 220.484375 385.503906 220.484375 385.945312 220.484375 C 385.769531 221.71875 385.230469 222.261719 384.320312 223.085938 C 384.429688 222.226562 384.535156 221.367188 384.644531 220.484375 Z M 384.644531 220.484375 "/>
<path style=" stroke:none;fill-rule:nonzero;fill:rgb(92.156863%,8.627451%,9.411765%);fill-opacity:1;" d="M 272.890625 187.636719 C 273.105469 187.960938 273.320312 188.28125 273.539062 188.613281 C 272.59375 189.246094 272.039062 189.410156 270.941406 189.589844 C 272.160156 188.003906 272.160156 188.003906 272.890625 187.636719 Z M 272.890625 187.636719 "/>
<path style=" stroke:none;fill-rule:nonzero;fill:rgb(92.941177%,9.411765%,10.196079%);fill-opacity:1;" d="M 139.042969 172.679688 C 139.6875 172.679688 140.332031 172.679688 140.992188 172.679688 C 140.457031 173.214844 139.921875 173.75 139.367188 174.304688 C 139.15625 174.199219 138.941406 174.089844 138.71875 173.980469 C 138.828125 173.550781 138.933594 173.121094 139.042969 172.679688 Z M 139.042969 172.679688 "/>
<path style=" stroke:none;fill-rule:nonzero;fill:rgb(92.156863%,7.450981%,8.235294%);fill-opacity:1;" d="M 310.574219 152.191406 C 311.003906 152.296875 311.433594 152.40625 311.875 152.515625 C 311.980469 153.269531 312.089844 154.019531 312.199219 154.792969 C 311.984375 154.792969 311.769531 154.792969 311.550781 154.792969 C 311.550781 154.363281 311.550781 153.933594 311.550781 153.492188 C 311.226562 153.386719 310.90625 153.277344 310.574219 153.167969 C 310.789062 153.058594 311.003906 152.953125 311.226562 152.84375 C 311.011719 152.628906 310.796875 152.414062 310.574219 152.191406 Z M 310.574219 152.191406 "/>
<path style=" stroke:none;fill-rule:nonzero;fill:rgb(97.647059%,77.254903%,77.64706%);fill-opacity:1;" d="M 181.601562 147.964844 C 181.816406 148.285156 182.03125 148.609375 182.253906 148.9375 C 183.039062 149.128906 183.039062 149.128906 183.917969 149.164062 C 184.359375 149.195312 184.359375 149.195312 184.8125 149.226562 C 185.039062 149.238281 185.265625 149.253906 185.5 149.265625 C 185.5 149.371094 185.5 149.480469 185.5 149.589844 C 184.105469 149.589844 182.714844 149.589844 181.277344 149.589844 C 181.382812 149.054688 181.492188 148.515625 181.601562 147.964844 Z M 181.601562 147.964844 "/>
<path style=" stroke:none;fill-rule:nonzero;fill:rgb(92.54902%,9.411765%,9.019608%);fill-opacity:1;" d="M 326.167969 134.632812 C 326.382812 134.632812 326.597656 134.632812 326.820312 134.632812 C 326.820312 134.84375 326.820312 135.058594 326.820312 135.28125 C 327.035156 135.28125 327.246094 135.28125 327.46875 135.28125 C 327.363281 135.816406 327.253906 136.355469 327.144531 136.90625 C 326.714844 136.476562 326.285156 136.046875 325.84375 135.605469 C 325.953125 135.285156 326.058594 134.960938 326.167969 134.632812 Z M 326.167969 134.632812 "/>
<path style=" stroke:none;fill-rule:nonzero;fill:rgb(92.941177%,7.843138%,9.019608%);fill-opacity:1;" d="M 177.054688 114.144531 C 177.140625 114.351562 177.226562 114.558594 177.316406 114.773438 C 177.667969 115.550781 177.667969 115.550781 178.679688 115.769531 C 178.785156 116.089844 178.894531 116.414062 179.003906 116.746094 C 178.039062 116.585938 178.039062 116.585938 177.054688 116.421875 C 177.054688 115.667969 177.054688 114.917969 177.054688 114.144531 Z M 177.054688 114.144531 "/>
<path style=" stroke:none;fill-rule:nonzero;fill:rgb(98.039216%,94.901961%,95.294118%);fill-opacity:1;" d="M 296.605469 225.359375 C 296.820312 225.46875 297.035156 225.574219 297.257812 225.6875 C 297.042969 226.113281 296.828125 226.542969 296.605469 226.984375 C 295.304688 226.984375 295.304688 226.984375 294.332031 226.660156 C 296.046875 225.613281 296.046875 225.613281 296.605469 225.359375 Z M 296.605469 225.359375 "/>
<path style=" stroke:none;fill-rule:nonzero;fill:rgb(97.647059%,94.509804%,94.509804%);fill-opacity:1;" d="M 375.226562 213.652344 C 375.546875 213.976562 375.867188 214.296875 376.199219 214.628906 C 375.984375 215.058594 375.769531 215.488281 375.550781 215.929688 C 375.441406 215.714844 375.335938 215.5 375.226562 215.28125 C 375.011719 215.28125 374.796875 215.28125 374.574219 215.28125 C 374.789062 214.742188 375.003906 214.207031 375.226562 213.652344 Z M 375.226562 213.652344 "/>
<path style=" stroke:none;fill-rule:nonzero;fill:rgb(93.333334%,15.686275%,16.470589%);fill-opacity:1;" d="M 152.6875 203.570312 C 153.011719 203.679688 153.332031 203.785156 153.664062 203.898438 C 153.554688 204.433594 153.449219 204.96875 153.339844 205.523438 C 153.125 205.308594 152.910156 205.09375 152.6875 204.875 C 152.472656 205.085938 152.261719 205.300781 152.039062 205.523438 C 152.039062 205.09375 152.039062 204.664062 152.039062 204.222656 C 152.253906 204.222656 152.46875 204.222656 152.6875 204.222656 C 152.6875 204.007812 152.6875 203.792969 152.6875 203.570312 Z M 152.6875 203.570312 "/>
<path style=" stroke:none;fill-rule:nonzero;fill:rgb(92.54902%,8.235294%,10.196079%);fill-opacity:1;" d="M 323.570312 230.5625 C 323.785156 230.992188 324 231.421875 324.21875 231.863281 C 323.898438 231.972656 323.578125 232.078125 323.246094 232.1875 C 323.136719 232.082031 323.03125 231.976562 322.921875 231.863281 C 322.707031 232.078125 322.492188 232.292969 322.269531 232.515625 C 322.378906 231.976562 322.484375 231.441406 322.59375 230.890625 C 322.917969 230.78125 323.238281 230.675781 323.570312 230.5625 Z M 323.570312 230.5625 "/>
<path style=" stroke:none;fill-rule:nonzero;fill:rgb(93.333334%,7.058824%,8.235294%);fill-opacity:1;" d="M 153.664062 202.273438 C 154.09375 202.484375 154.519531 202.699219 154.960938 202.921875 C 154.394531 204.183594 154.394531 204.183594 153.664062 204.546875 C 153.539062 203.898438 153.433594 203.25 153.339844 202.597656 C 153.445312 202.488281 153.554688 202.382812 153.664062 202.273438 Z M 153.664062 202.273438 "/>
<path style=" stroke:none;fill-rule:nonzero;fill:rgb(92.941177%,6.27451%,8.627451%);fill-opacity:1;" d="M 118.902344 185.359375 C 119.550781 186.621094 119.550781 186.621094 119.550781 186.988281 C 118.800781 187.09375 118.050781 187.203125 117.277344 187.3125 C 117.8125 186.667969 118.351562 186.023438 118.902344 185.359375 Z M 118.902344 185.359375 "/>
<path style=" stroke:none;fill-rule:nonzero;fill:rgb(92.54902%,7.058824%,6.666667%);fill-opacity:1;" d="M 277.4375 162.597656 C 277.980469 162.757812 277.980469 162.757812 278.535156 162.921875 C 279.613281 163.277344 279.613281 163.277344 280.363281 163.25 C 280.363281 163.570312 280.363281 163.890625 280.363281 164.222656 C 278.960938 164.066406 278.359375 163.65625 277.4375 162.597656 Z M 277.4375 162.597656 "/>
<path style=" stroke:none;fill-rule:nonzero;fill:rgb(97.647059%,94.901961%,94.509804%);fill-opacity:1;" d="M 196.222656 151.214844 C 196.542969 151.324219 196.863281 151.429688 197.195312 151.539062 C 197.089844 151.863281 196.980469 152.183594 196.871094 152.515625 C 196.550781 152.625 196.226562 152.730469 195.898438 152.84375 C 195.1875 152.375 195.1875 152.375 194.597656 151.867188 C 195.132812 151.757812 195.667969 151.652344 196.222656 151.539062 C 196.222656 151.433594 196.222656 151.328125 196.222656 151.214844 Z M 196.222656 151.214844 "/>
<path style=" stroke:none;fill-rule:nonzero;fill:rgb(92.54902%,9.019608%,9.411765%);fill-opacity:1;" d="M 98.761719 137.882812 C 98.976562 138.203125 99.1875 138.527344 99.410156 138.859375 C 98.773438 139.207031 98.121094 139.53125 97.460938 139.835938 C 97.246094 139.726562 97.03125 139.621094 96.8125 139.507812 C 97.453125 138.972656 98.097656 138.4375 98.761719 137.882812 Z M 98.761719 137.882812 "/>
</g>
</svg>
