<?xml version="1.0" encoding="UTF-8"?>
<svg version="1.1" xmlns="http://www.w3.org/2000/svg" width="1536" height="1024">
<path d="M0 0 C506.88 0 1013.76 0 1536 0 C1536 337.92 1536 675.84 1536 1024 C1029.12 1024 522.24 1024 0 1024 C0 686.08 0 348.16 0 0 Z " fill="#FCFCFC" transform="translate(0,0)"/>
<path d="M0 0 C3.17643467 2.15526247 6.09828444 4.49155724 9 7 C9.96679688 7.76828125 10.93359375 8.5365625 11.9296875 9.328125 C41.40272661 33.93686184 52.81140632 80.74235429 56.25 117.0625 C58.65608511 146.1861552 60.63978544 186.72042911 47 214 C48.31613281 213.96519531 49.63226562 213.93039062 50.98828125 213.89453125 C69.14292746 213.55404522 69.14292746 213.55404522 78 217 C78.969375 217.35191406 79.93875 217.70382812 80.9375 218.06640625 C100.39581494 225.58664786 113.90506657 238.77064289 122.6796875 257.60546875 C134.34215925 285.02294427 135.1404541 321.48488334 127 350 C126.76925781 350.84304688 126.53851562 351.68609375 126.30078125 352.5546875 C118.9270953 378.85026598 103.24918971 409.91902249 79.1953125 424.7265625 C72.22620254 428.62704579 66.11247074 431.34775872 58 430 C52.71833229 427.63759272 48.13735251 424.27601959 45.66015625 418.94140625 C42.85979069 410.70601167 44.43800111 404.10651065 46.99389648 396.03588867 C50.74907888 384.02817869 51.40941061 371.92646416 51.375 359.4375 C51.37445618 358.69187805 51.37391235 357.9462561 51.37335205 357.17803955 C51.28946006 332.0956751 45.58444022 304.08002406 28 285 C27.34 284.67 26.68 284.34 26 284 C25.70456299 284.58152832 25.40912598 285.16305664 25.10473633 285.76220703 C17.58622447 300.5050093 9.60532658 314.8652177 1 329 C0.16952148 330.36632568 0.16952148 330.36632568 -0.67773438 331.76025391 C-13.99639027 353.61383244 -27.67917267 373.70975078 -45.36572266 392.26855469 C-47.68295667 394.72356269 -49.93154751 397.23872266 -52.1875 399.75 C-65.70778873 414.43821996 -79.37782657 427.84537598 -96 439 C-96.77311523 439.52142578 -97.54623047 440.04285156 -98.34277344 440.58007812 C-130.34140001 461.94815387 -165.05734403 474.99811724 -203 481 C-204.82144531 481.29003906 -204.82144531 481.29003906 -206.6796875 481.5859375 C-217.99340521 482.99682465 -228.49067032 482.85594732 -238.27734375 476.52734375 C-245.76025347 470.63298469 -249.39096033 462.21540902 -251 453 C-252.1595583 442.88508377 -247.36825175 436.18453119 -241.6875 428.1875 C-238.50594188 423.65379278 -235.41884022 419.12384149 -232.5625 414.375 C-223.65217879 400.23700815 -210.93647694 387.72816682 -198.24951172 376.95043945 C-188.58852294 368.57387777 -179.46272928 359.62482435 -170.44091797 350.57128906 C-168.60889005 348.7338424 -166.77149395 346.9018835 -164.93359375 345.0703125 C-159.59597982 339.73571255 -154.30926044 334.41000028 -149.41455078 328.65966797 C-147.22893994 326.09532857 -144.92147445 323.65293429 -142.625 321.1875 C-138.32063746 316.52758218 -134.23001985 311.74064981 -130.265625 306.78515625 C-128.66941259 304.82291583 -127.02941899 302.89589231 -125.359375 300.99609375 C-114.2171764 288.3173892 -112.17871251 276.71790745 -112.82519531 260.29980469 C-113.74535683 248.19376913 -121.12322452 235.79689805 -129.9140625 227.6796875 C-139.82704215 219.69732561 -152.19689877 216.74278568 -164.80908203 217.74121094 C-182.13176481 219.78734909 -200.10063063 224.60606152 -215.5 232.875 C-221.02289839 235.75484273 -225.78815329 237.6973547 -232 236 C-236.14497279 232.89127041 -238.60189078 229.54177428 -239.40625 224.40625 C-239.82456157 211.43859134 -233.2752873 202.29761601 -224.9140625 193.03515625 C-202.77830877 169.48195047 -170.07654789 157.30969477 -138.29296875 155.71484375 C-113.58449429 154.97688398 -91.73029968 163.56180776 -73.44189453 180.13891602 C-70.6624364 183.03706685 -70.6624364 183.03706685 -67 184 C-61.19515403 161.77286572 -56.21730698 139.90696717 -54 117 C-53.8983252 115.96528564 -53.79665039 114.93057129 -53.69189453 113.86450195 C-52.97340882 105.69914548 -52.84579155 97.56179291 -52.86962891 89.37182617 C-52.87496856 87.20028625 -52.86965729 85.02895542 -52.86328125 82.85742188 C-52.85944086 74.4977834 -53.18887345 66.22111031 -53.75976562 57.88208008 C-54.14409566 51.67147862 -54.26216718 45.47113683 -54.3125 39.25 C-54.34150391 38.03957031 -54.37050781 36.82914062 -54.40039062 35.58203125 C-54.49031335 22.72999837 -51.3484028 12.59570482 -42.375 3.3203125 C-30.38703455 -7.83515535 -13.83442629 -8.03484147 0 0 Z " fill="#EC2023" transform="translate(511,246)"/>
<path d="M0 0 C8.29802532 7.08398542 13.61621192 15.08621345 18.02734375 24.9609375 C18.31762451 25.6094165 18.60790527 26.25789551 18.90698242 26.92602539 C26.6231929 45.06560902 25.12998493 67.16308581 17.89453125 85.1875 C9.45453131 103.4049862 -4.55768291 113.89182203 -22.74609375 121.06640625 C-39.6852479 126.23551776 -59.33861761 123.50635763 -75.16015625 116.1484375 C-87.38284701 109.54023477 -96.77054036 100.41869919 -103.09765625 88.0859375 C-103.42330566 87.45880859 -103.74895508 86.83167969 -104.08447266 86.18554688 C-108.88543622 76.30899364 -110.281839 66.28228325 -110.16015625 55.3984375 C-110.17175781 54.36074219 -110.18335938 53.32304688 -110.1953125 52.25390625 C-110.1560293 41.73910295 -107.97285566 32.10299916 -103.09765625 22.7734375 C-102.74807861 22.09531006 -102.39850098 21.41718262 -102.03833008 20.71850586 C-94.15034172 5.86730339 -82.50190109 -4.13608271 -66.78515625 -10.1015625 C-65.91117188 -10.441875 -65.0371875 -10.7821875 -64.13671875 -11.1328125 C-42.91658524 -17.8535586 -17.56108703 -13.2508623 0 0 Z " fill="#EC2123" transform="translate(920.78515625,580.1015625)"/>
<path d="M0 0 C14.69713881 12.58036595 22.15541306 30.29283012 24.625 49.1875 C24.80776359 52.41775689 24.85519942 55.6400796 24.875 58.875 C24.9059375 60.15600586 24.9059375 60.15600586 24.9375 61.46289062 C24.94523437 62.69362305 24.94523437 62.69362305 24.953125 63.94921875 C24.9624707 64.69131592 24.97181641 65.43341309 24.98144531 66.19799805 C24.51774605 68.78613868 23.64864176 69.54562035 21.625 71.1875 C18.56632958 71.46832304 15.71362447 71.56606838 12.65551758 71.52807617 C11.73824387 71.52851425 10.82097015 71.52895233 9.87590027 71.52940369 C6.84022834 71.52731158 3.80510685 71.50396051 0.76953125 71.48046875 C-1.33368122 71.4748743 -3.43689759 71.47060349 -5.54011536 71.46760559 C-11.07879407 71.45614497 -16.6172372 71.42666719 -22.15582275 71.39349365 C-27.80632337 71.36281907 -33.45686201 71.34910584 -39.10742188 71.33398438 C-50.19671816 71.30179876 -61.2858395 71.2505876 -72.375 71.1875 C-71.93239644 73.41825215 -71.4799602 75.64705474 -71.0234375 77.875 C-70.64711182 79.73705078 -70.64711182 79.73705078 -70.26318359 81.63671875 C-69.06901481 86.41076789 -67.14629137 90.15955698 -64.375 94.1875 C-63.653125 95.26 -62.93125 96.3325 -62.1875 97.4375 C-56.62539421 102.87600344 -49.11034665 106.30286092 -41.3125 106.4375 C-30.72908461 106.28452028 -22.79517058 102.4504368 -14.375 96.1875 C-13.83109619 95.60315186 -13.28719238 95.01880371 -12.72680664 94.41674805 C-8.6949625 90.24380793 -5.86924301 88.70890091 -0.01171875 88.36328125 C2.30511741 88.37250118 4.62206484 88.41891472 6.9375 88.5 C8.70577148 88.49709961 8.70577148 88.49709961 10.50976562 88.49414062 C19.07957312 88.63623577 19.07957312 88.63623577 21.44995117 91.03198242 C23.26551109 94.36245791 23.11142896 96.41767553 22.625 100.1875 C19.81083346 108.27652944 14.59567321 114.20644301 8.625 120.1875 C8.05910156 120.765 7.49320313 121.3425 6.91015625 121.9375 C-7.48515725 135.45290436 -27.44665278 137.07728219 -46.140625 136.56640625 C-64.67201962 135.67665386 -81.15760439 128.30897837 -94.375 115.1875 C-107.77639865 99.57854983 -112.54035298 81.77197703 -112.625 61.5625 C-112.645625 60.35464844 -112.66625 59.14679688 -112.6875 57.90234375 C-112.77429859 37.74337227 -105.0168569 20.0317995 -91.1875 5.4375 C-66.27402434 -18.34510262 -27.53490918 -20.79853996 0 0 Z " fill="#ED2123" transform="translate(938.375,377.8125)"/>
<path d="M0 0 C15.48185859 4.87033468 25.84967308 21.60447494 33.03417969 35.14257812 C38.40133405 45.46444627 42.66172329 55.84768301 46 67 C46.28617188 67.93585938 46.57234375 68.87171875 46.8671875 69.8359375 C50.87012282 84.23825117 52.57978945 100.08415435 53 115 C53.02723145 115.96083496 53.05446289 116.92166992 53.08251953 117.91162109 C53.65296906 142.06782672 51.37687375 165.14939361 45.54394531 188.60791016 C44.90967934 191.22663614 44.90967934 191.22663614 44.4921875 194.85546875 C43.86386684 198.41742744 43.36221898 200.24329514 41 203 C35.65723286 205.98231155 29.61233685 207.41092743 23.77539062 209.11523438 C19.27853457 210.54878525 15.03113516 212.46252074 10.75 214.4375 C9.92395264 214.81495361 9.09790527 215.19240723 8.24682617 215.58129883 C2.87554714 218.06382275 -2.41424499 220.69180885 -7.6875 223.375 C-13.04044771 226.09728942 -18.25775553 228.27019343 -24 230 C-34.82841642 233.50953562 -44.95773136 237.62078162 -55 243 C-53.80897419 239.92938659 -52.52653659 236.91043252 -51.1875 233.90234375 C-38.23948403 204.65319218 -28.43379738 174.36730359 -22.1875 143 C-22.04615631 142.30559814 -21.90481262 141.61119629 -21.75918579 140.89575195 C-20.69676622 135.61754693 -19.80376999 130.32352009 -19 125 C-18.8582132 124.07353668 -18.71642639 123.14707336 -18.57034302 122.1925354 C-15.05315142 98.11073271 -15.79537309 73.98026932 -16.09979248 49.71490479 C-16.17231675 43.89712428 -16.22897083 38.07965478 -16.26269341 32.26151466 C-16.28468401 29.56952856 -16.33006723 26.87859823 -16.37623596 24.18693542 C-16.38756686 22.53958939 -16.39771742 20.89223467 -16.40649414 19.24487305 C-16.42558838 18.50986572 -16.44468262 17.7748584 -16.46435547 17.01757812 C-16.4532531 10.40513436 -14.19936413 6.31824867 -9.6875 1.5625 C-6.0956902 -0.52576151 -4.11316336 -0.55771707 0 0 Z " fill="#FCFBFB" transform="translate(494,261)"/>
<path d="M0 0 C1.18480957 0.00829834 2.36961914 0.01659668 3.59033203 0.02514648 C19.6690708 0.33481925 34.51308447 4.46343511 46.625 15.625 C52.39826812 21.80229057 57.79293347 30.77127462 57.875 39.4375 C57.88917969 40.118125 57.90335938 40.79875 57.91796875 41.5 C57.6875 43.4375 57.6875 43.4375 55.6875 46.4375 C52.70654297 46.77807617 52.70654297 46.77807617 48.9296875 46.73046875 C48.26663605 46.72622391 47.60358459 46.72197906 46.92044067 46.71760559 C44.80071559 46.70079971 42.68193812 46.66314701 40.5625 46.625 C39.12631581 46.60995549 37.69011672 46.59626668 36.25390625 46.58398438 C32.73146236 46.5508909 29.20957364 46.4990968 25.6875 46.4375 C25.35266602 45.74390381 25.01783203 45.05030762 24.67285156 44.33569336 C24.00721191 42.9764978 24.00721191 42.9764978 23.328125 41.58984375 C22.89016602 40.68999756 22.45220703 39.79015137 22.00097656 38.86303711 C19.15782708 33.61272296 14.7806471 31.63786959 9.27734375 29.98046875 C1.72687573 28.39748978 -5.54210214 28.59505283 -12.46484375 32.17578125 C-15.4302178 34.20076184 -16.84397508 36.18120562 -18.3125 39.4375 C-18.77868895 43.23361 -18.66367243 45.59858808 -17.1875 49.125 C-13.36980524 53.83349021 -8.71503471 55.89841808 -2.9375 57.3125 C-2.31174072 57.47194092 -1.68598145 57.63138184 -1.04125977 57.7956543 C3.12935155 58.84954767 7.31947839 59.81377447 11.51171875 60.77734375 C28.38724554 64.71993763 45.22308067 68.87803546 55.0625 84.4375 C60.89222447 94.3382611 61.28531977 106.68444272 59 117.7734375 C55.4910059 128.21269494 48.31216303 136.73880216 38.70703125 142.1015625 C26.5690701 147.98927125 15.31487529 149.98320058 1.875 149.875 C1.21452667 149.87162628 0.55405334 149.86825256 -0.12643433 149.86477661 C-18.44047547 149.7292033 -34.68325507 145.57513536 -48.375 132.61328125 C-54.94305208 125.2374647 -58.455158 117.31450118 -58.67578125 107.48828125 C-58.19480999 104.77312092 -57.53533066 104.0706352 -55.3125 102.4375 C-52.30981445 102.09692383 -52.30981445 102.09692383 -48.67578125 102.14453125 C-47.37705078 102.15419922 -46.07832031 102.16386719 -44.74023438 102.17382812 C-43.36848361 102.19889415 -41.99673882 102.22428899 -40.625 102.25 C-39.24155076 102.2650498 -37.85808599 102.2787377 -36.47460938 102.29101562 C-33.08684793 102.32642777 -29.69986861 102.37581946 -26.3125 102.4375 C-25.98999268 103.11949463 -25.66748535 103.80148926 -25.33520508 104.50415039 C-24.90103271 105.40125732 -24.46686035 106.29836426 -24.01953125 107.22265625 C-23.59389893 108.11090088 -23.1682666 108.99914551 -22.72973633 109.91430664 C-19.45585535 115.74299913 -14.68221972 118.6293007 -8.53540039 120.83325195 C-4.75394129 121.86116093 -1.08398039 121.87163714 2.8125 121.8125 C3.97072266 121.82990234 3.97072266 121.82990234 5.15234375 121.84765625 C10.11163051 121.82231066 13.30371818 120.95584275 17.6875 118.4375 C18.3475 118.4375 19.0075 118.4375 19.6875 118.4375 C22.25813984 113.46759631 23.44563969 109.06481854 22.6875 103.4375 C19.82558853 97.71367706 16.09928058 94.7299241 10.25390625 92.515625 C3.84871073 90.44010348 -2.65213165 88.85580392 -9.19238281 87.27246094 C-26.15044084 83.15652847 -41.95218041 79.06793508 -51.67578125 63.21484375 C-55.03118275 56.68706265 -55.54513476 51.01773701 -55.625 43.75 C-55.65400391 42.88955078 -55.68300781 42.02910156 -55.71289062 41.14257812 C-55.77596426 34.7042158 -54.36498135 30.07828018 -51.3125 24.4375 C-50.85488281 23.57898438 -50.39726563 22.72046875 -49.92578125 21.8359375 C-42.18333067 9.79212549 -30.17313278 4.33377562 -16.61499023 1.05712891 C-11.07602474 0.01788189 -5.62194983 -0.05099183 0 0 Z " fill="#ED2023" transform="translate(749.3125,364.5625)"/>
<path d="M0 0 C5.03536777 -0.07432418 10.07041408 -0.12868401 15.10620117 -0.16479492 C16.81817184 -0.1798534 18.53010411 -0.20030455 20.24194336 -0.22631836 C22.70696505 -0.2628319 25.17147535 -0.27975562 27.63671875 -0.29296875 C28.77919319 -0.31619453 28.77919319 -0.31619453 29.94474792 -0.33988953 C34.50171641 -0.34132293 37.37070464 0.19918137 41 3 C42.8515625 5.13671875 42.8515625 5.13671875 44.625 7.6875 C45.65173828 9.15123047 45.65173828 9.15123047 46.69921875 10.64453125 C47.4668571 11.7625328 48.23374052 12.88105295 49 14 C49.88118257 15.27496623 50.76270772 16.54969575 51.64453125 17.82421875 C53.51558913 20.53381093 55.37762055 23.24933984 57.234375 25.96875 C59.03837162 28.60750736 60.8603044 31.23196326 62.703125 33.84375 C63.12279541 34.44074707 63.54246582 35.03774414 63.97485352 35.65283203 C65.11954558 37.27849295 66.26862058 38.90106512 67.41796875 40.5234375 C69 43 69 43 69 45 C69.66 45 70.32 45 71 45 C71.22042969 44.33226562 71.44085937 43.66453125 71.66796875 42.9765625 C73.41810411 39.06570283 75.80027873 35.83115884 78.3125 32.375 C81.77550773 27.55826624 85.20497465 22.72927773 88.5078125 17.80078125 C89.36765747 16.52098389 89.36765747 16.52098389 90.24487305 15.21533203 C91.35138899 13.56281998 92.45207398 11.90638466 93.54614258 10.24560547 C94.05556396 9.48779785 94.56498535 8.72999023 95.08984375 7.94921875 C95.53191162 7.28237061 95.97397949 6.61552246 96.42944336 5.9284668 C99.58384005 2.05522268 101.70073178 0.15606322 106.78051758 -0.45410156 C108.23534254 -0.45347396 109.69027234 -0.43120943 111.14453125 -0.390625 C111.91431808 -0.38496521 112.68410492 -0.37930542 113.47721863 -0.37347412 C115.92295943 -0.35117872 118.3672061 -0.30099875 120.8125 -0.25 C122.47589022 -0.229926 124.13930353 -0.2116768 125.80273438 -0.1953125 C129.86906058 -0.15133684 133.93427744 -0.08235979 138 0 C138.62939453 2.29248047 138.62939453 2.29248047 139 5 C137.38783069 7.58555455 135.79181525 9.78423169 133.875 12.125 C132.75539936 13.55047521 131.63965904 14.97898894 130.52734375 16.41015625 C129.94452637 17.15797363 129.36170898 17.90579102 128.76123047 18.67626953 C125.83594984 22.53582332 123.14151142 26.54629554 120.4375 30.5625 C116.50999102 36.36397184 112.53110671 42.10967617 108.375 47.75 C107.93833008 48.34611084 107.50166016 48.94222168 107.05175781 49.55639648 C104.68386371 52.77352976 102.26798273 55.94424395 99.80078125 59.0859375 C99.28016113 59.76172852 98.75954102 60.43751953 98.22314453 61.13378906 C97.22237559 62.43144748 96.20698641 63.71800063 95.17529297 64.99121094 C93.62932113 66.92726888 93.62932113 66.92726888 92 70 C92.72968129 74.32549808 95.6766004 77.37918367 98.375 80.75 C102.3473356 85.79066141 106.13348656 90.92908148 109.8125 96.1875 C114.03789519 102.22133698 118.30581608 108.2203989 122.625 114.1875 C123.1624585 114.93435059 123.69991699 115.68120117 124.25366211 116.45068359 C126.82491449 120.02002133 129.41815632 123.56647988 132.078125 127.0703125 C132.788479 128.02127808 132.788479 128.02127808 133.51318359 128.99145508 C134.39442774 130.16987029 135.28732435 131.33969813 136.19384766 132.4987793 C139.08834842 136.4044883 139.08834842 136.4044883 138.60205078 139.68237305 C138.40337402 140.44718994 138.20469727 141.21200684 138 142 C132.82227254 142.12385084 127.64541212 142.21445571 122.46655273 142.2746582 C120.70598324 142.29976061 118.94551753 142.33385028 117.18530273 142.37719727 C114.65061821 142.43804115 112.11731425 142.46625113 109.58203125 142.48828125 C108.40674614 142.52699089 108.40674614 142.52699089 107.2077179 142.56648254 C103.0549248 142.56860078 101.49218078 142.39551969 98.14331055 139.7043457 C97.43601807 138.81191162 96.72872559 137.91947754 96 137 C95.23042969 136.05036377 95.23042969 136.05036377 94.4453125 135.08154297 C94.00960938 134.47455566 93.57390625 133.86756836 93.125 133.2421875 C92.62057373 132.54270996 92.11614746 131.84323242 91.59643555 131.12255859 C91.06961182 130.38086426 90.54278809 129.63916992 90 128.875 C89.44546143 128.1010791 88.89092285 127.3271582 88.31958008 126.52978516 C82.07844894 117.77974912 76.02364067 108.90062561 70 100 C66.19776606 103.48837029 63.41931359 107.47039492 60.5 111.6875 C59.98171631 112.42701904 59.46343262 113.16653809 58.92944336 113.9284668 C56.17579047 117.85923475 53.44457982 121.80502808 50.72265625 125.7578125 C50.19285156 126.52134033 49.66304687 127.28486816 49.1171875 128.0715332 C48.10417074 129.53172178 47.09733086 130.99622111 46.09765625 132.46557617 C45.63359375 133.13306885 45.16953125 133.80056152 44.69140625 134.48828125 C44.29123291 135.07134033 43.89105957 135.65439941 43.47875977 136.25512695 C38.89962217 141.65831275 38.89962217 141.65831275 35.08848572 142.34382629 C32.78122741 142.46247685 30.50876014 142.44982661 28.19921875 142.390625 C27.36284378 142.38496521 26.52646881 142.37930542 25.66474915 142.37347412 C23.00507289 142.35116268 20.34676595 142.30097788 17.6875 142.25 C15.87957681 142.22992815 14.07163241 142.21167858 12.26367188 142.1953125 C7.84192389 142.15131527 3.42119375 142.08232546 -1 142 C-0.50410541 138.01198956 0.09505019 135.29181351 2.51953125 132.07421875 C3.30203247 131.01605957 3.30203247 131.01605957 4.1003418 129.93652344 C4.665354 129.1943457 5.23036621 128.45216797 5.8125 127.6875 C7.00355232 126.08273453 8.19363414 124.47724837 9.3828125 122.87109375 C9.98770508 122.0601123 10.59259766 121.24913086 11.21582031 120.41357422 C13.93476036 116.73548975 16.56249026 112.99540928 19.1875 109.25 C20.17934356 107.84090368 21.17152588 106.43204573 22.1640625 105.0234375 C22.64004883 104.34764648 23.11603516 103.67185547 23.60644531 102.97558594 C25.75035463 99.93625269 27.90447146 96.904317 30.0625 93.875 C30.65309204 93.03932495 30.65309204 93.03932495 31.25561523 92.18676758 C33.47988607 89.05669736 35.76843115 85.99555729 38.13671875 82.97265625 C38.65548584 82.29928223 39.17425293 81.6259082 39.70874023 80.93212891 C40.71522556 79.62958098 41.73637688 78.3381989 42.77368164 77.06005859 C44.33800449 75.1046291 44.33800449 75.1046291 46 72 C45.27652741 67.43928556 41.87595941 63.8732968 39.125 60.25 C38.12362264 58.90857919 37.12367369 57.56609113 36.125 56.22265625 C35.60808594 55.5280127 35.09117187 54.83336914 34.55859375 54.11767578 C32.02734696 50.67844729 29.5763192 47.1839301 27.125 43.6875 C23.44759937 38.4503722 19.74024207 33.23759768 15.984375 28.05639648 C13.8212137 25.07225734 11.66747931 22.08136282 9.51318359 19.09082031 C8.06675577 17.09223886 6.60650626 15.10440764 5.14453125 13.1171875 C4.30403623 11.95359515 3.46415028 10.78956251 2.625 9.625 C1.53058594 8.12839844 1.53058594 8.12839844 0.4140625 6.6015625 C-1 4 -1 4 -0.58837891 1.83740234 C-0.39421387 1.23105957 -0.20004883 0.6247168 0 0 Z " fill="#ED2023" transform="translate(972,368)"/>
<path d="M0 0 C-0.56041936 5.75363874 -2.76875818 10.3645176 -5.25 15.5 C-5.68892578 16.41346191 -6.12785156 17.32692383 -6.58007812 18.26806641 C-11.77719258 28.8701076 -17.76419991 38.98140192 -24 49 C-24.42748535 49.68755371 -24.8549707 50.37510742 -25.29541016 51.08349609 C-30.42369979 59.2387991 -36.12257428 66.94853266 -41.9375 74.625 C-42.56954346 75.45974854 -43.20158691 76.29449707 -43.8527832 77.15454102 C-52.92794413 88.98805353 -62.61268425 99.94778301 -73.18847656 110.44921875 C-75.00563478 112.25560136 -76.81177102 114.07251495 -78.6171875 115.890625 C-85.43309759 122.71511834 -92.37243392 129.07936615 -100 135 C-100.68610352 135.54011719 -101.37220703 136.08023438 -102.07910156 136.63671875 C-124.76891242 154.34014297 -162.55632979 183.49353593 -193 180 C-196.57703404 177.5407891 -197.77150957 176.05936471 -198.6875 171.8125 C-196.38975374 159.07045257 -184.66043054 149.60540057 -175.9375 140.8125 C-175.37224609 140.24241211 -174.80699219 139.67232422 -174.22460938 139.08496094 C-171.38853698 136.26031116 -168.50437117 133.5496914 -165.45556641 130.95556641 C-160.13090818 126.3138237 -155.170301 121.314846 -150.18359375 116.31640625 C-149.15819076 115.29167892 -148.13263954 114.26709989 -147.10694885 113.24266052 C-144.96981937 111.1069957 -142.83448391 108.96955792 -140.70043945 106.83081055 C-137.98524125 104.10991584 -135.26557667 101.3935369 -132.54453945 98.67848301 C-130.42957925 96.56716186 -128.31703793 94.45343325 -126.20518684 92.33900261 C-125.20413337 91.33728909 -124.20235615 90.33629823 -123.19979668 89.336092 C-116.62106502 82.76942209 -110.33974966 76.06763893 -104.4296875 68.89453125 C-98.148318 61.27727701 -91.40035208 54.18545579 -84.4375 47.1875 C-83.57560059 46.31649658 -82.71370117 45.44549316 -81.82568359 44.5480957 C-75.86145525 38.61152657 -69.60997413 33.20467838 -63 28 C-62.0886731 27.27574829 -62.0886731 27.27574829 -61.15893555 26.53686523 C-44.6278794 13.62351631 -21.62223782 0 0 0 Z " fill="#FCFBFB" transform="translate(492,507)"/>
<path d="M0 0 C4.78715623 -0.07415168 9.57397827 -0.12860204 14.36157227 -0.16479492 C15.99021223 -0.17988243 17.61881156 -0.20035506 19.24731445 -0.22631836 C21.58815535 -0.26270449 23.92845919 -0.2797262 26.26953125 -0.29296875 C26.99775589 -0.30845261 27.72598053 -0.32393646 28.47627258 -0.33988953 C33.49022317 -0.34155912 33.49022317 -0.34155912 35.87036133 1.25317383 C37.13695073 3.21177491 37.99560406 5.05171927 38.8046875 7.2421875 C39.13404297 8.12455078 39.46339844 9.00691406 39.80273438 9.91601562 C40.15658203 10.89248047 40.51042969 11.86894531 40.875 12.875 C41.25720703 13.91076172 41.63941406 14.94652344 42.03320312 16.01367188 C46.16139185 27.2800515 50.11421447 38.61131746 54.04248047 49.94873047 C58.47834459 62.71425705 63.21471062 75.36176232 68 88 C68.2261348 87.35029739 68.45226959 86.70059479 68.68525696 86.03120422 C87.84171396 31.01377347 87.84171396 31.01377347 94.5625 13.0625 C95.19442261 11.34703979 95.19442261 11.34703979 95.83911133 9.59692383 C96.22349365 8.58654053 96.60787598 7.57615723 97.00390625 6.53515625 C97.32174072 5.693479 97.6395752 4.85180176 97.96704102 3.98461914 C99 2 99 2 102 0 C104.47056823 -0.17112002 106.82503921 -0.23253124 109.29296875 -0.1953125 C110.35201164 -0.19106766 110.35201164 -0.19106766 111.43244934 -0.18673706 C113.68430633 -0.17555464 115.93576352 -0.1504542 118.1875 -0.125 C119.71548904 -0.11496767 121.24348433 -0.10584226 122.77148438 -0.09765625 C126.51447663 -0.07562172 130.25717056 -0.04110567 134 0 C135.21832798 3.65498393 134.67754571 4.58384403 133.359375 8.1328125 C132.9586377 9.22198975 132.55790039 10.31116699 132.14501953 11.43334961 C131.68466309 12.65159424 131.22430664 13.86983887 130.75 15.125 C130.25725222 16.44719893 129.76491666 17.76955154 129.27294922 19.09204102 C123.8835318 33.5151456 118.27308908 47.85571952 112.68554688 62.20288086 C106.924099 77.00109801 101.23732033 91.82637942 95.58947754 106.66830444 C89.2380517 123.35534021 82.87498229 140.03747937 76.34509277 156.65567017 C75.70667683 158.28073077 75.06967507 159.90634778 74.4342041 161.53256226 C73.57285188 163.73454694 72.70549099 165.93405578 71.8359375 168.1328125 C71.35688965 169.34855957 70.8778418 170.56430664 70.38427734 171.81689453 C67.05498383 179.47250809 67.05498383 179.47250809 64 181 C59.71664559 181.21097648 55.42956562 181.18579742 51.14160156 181.18530273 C49.00826135 181.18749152 46.87543634 181.20565919 44.7421875 181.22460938 C43.39062677 181.22754294 42.03906358 181.22952798 40.6875 181.23046875 C39.45386719 181.23457764 38.22023438 181.23868652 36.94921875 181.24291992 C34 181 34 181 32 179 C32.31195877 173.48872838 34.62001221 168.61410081 36.703125 163.578125 C37.44417012 161.72975205 38.183707 159.88077384 38.921875 158.03125 C40.08208429 155.13759772 41.25053584 152.24870856 42.4453125 149.36914062 C43.60079674 146.57416964 44.71707682 143.76600439 45.828125 140.953125 C46.19045227 140.10486145 46.55277954 139.2565979 46.92608643 138.38262939 C49.52478038 131.66132315 48.67941902 127.55932066 46 121 C45.652789 120.08128113 45.305578 119.16256226 44.94784546 118.21600342 C43.77376165 115.14400073 42.55062074 112.09519441 41.31640625 109.046875 C40.86474091 107.92118103 40.41307556 106.79548706 39.94772339 105.63568115 C38.49009246 102.00545286 37.02641275 98.3776991 35.5625 94.75 C34.55325634 92.2418825 33.54526166 89.73326381 32.53735352 87.22460938 C30.56751721 82.32279112 28.5954223 77.42188877 26.62207031 72.52148438 C24.51461294 67.28470376 22.4183781 62.04364885 20.3359375 56.796875 C19.83219529 55.52888947 19.32845186 54.26090441 18.82470703 52.99291992 C17.91369037 50.69902421 17.0031921 48.40492253 16.09326172 46.1105957 C13.60066567 39.86718805 11.01727688 33.67038551 8.359375 27.49609375 C7.74155858 26.05341079 7.12380096 24.61070265 6.50610352 23.16796875 C5.32664524 20.41486328 4.1297011 17.67033859 2.92163086 14.9296875 C2.38857508 13.691658 1.85607451 12.45338925 1.32421875 11.21484375 C0.85072998 10.13323975 0.37724121 9.05163574 -0.1105957 7.93725586 C-1.06617767 4.78144839 -0.95226679 3.1162147 0 0 Z " fill="#ED2023" transform="translate(947,570)"/>
<path d="M0 0 C8.54050393 6.47751058 13.92124092 13.58012901 17.3125 23.75390625 C17.515625 25.9453125 17.515625 25.9453125 17.5625 28.31640625 C17.58828125 29.10144531 17.6140625 29.88648438 17.640625 30.6953125 C17.53234375 31.37464844 17.4240625 32.05398438 17.3125 32.75390625 C13.81913182 35.08281837 12.45242135 34.98941768 8.33203125 34.94921875 C6.58696289 34.93955078 6.58696289 34.93955078 4.80664062 34.9296875 C2.98422852 34.90455078 2.98422852 34.90455078 1.125 34.87890625 C-0.10154297 34.86988281 -1.32808594 34.86085938 -2.59179688 34.8515625 C-5.62389295 34.82796642 -8.65559938 34.79504466 -11.6875 34.75390625 C-12.00638184 34.06756104 -12.32526367 33.38121582 -12.65380859 32.67407227 C-13.08516113 31.77358154 -13.51651367 30.87309082 -13.9609375 29.9453125 C-14.38294434 29.05271729 -14.80495117 28.16012207 -15.23974609 27.24047852 C-17.8999833 22.67142018 -21.69286873 20.41878334 -26.6875 18.75390625 C-37.13064553 17.80839578 -37.13064553 17.80839578 -47 20.37890625 C-50.51085766 23.48152465 -52.46233598 25.95857729 -52.84765625 30.7421875 C-52.64985751 34.94343277 -52.19976737 36.24849961 -49.0625 39.34375 C-45.812194 41.8750943 -42.59009348 43.08647599 -38.625 44.25390625 C-37.94453613 44.45838379 -37.26407227 44.66286133 -36.56298828 44.87353516 C-31.67597692 46.30150829 -26.74298521 47.43181595 -21.77246094 48.52661133 C-8.34794572 51.51024007 4.60156925 55.27131572 13.3125 66.75390625 C19.17449858 75.97066306 20.830808 86.15275672 18.6953125 96.84375 C15.5440799 107.67785499 9.22661165 115.61280853 -0.5703125 121.21484375 C-18.48224056 130.05857766 -41.62174095 131.33480419 -60.66796875 125.015625 C-73.54323746 119.63566149 -83.31016629 112.75924045 -89 99.75390625 C-89.89426523 95.85165797 -90.01599818 92.76158403 -89.6875 88.75390625 C-88.54174805 87.03393555 -88.54174805 87.03393555 -86.6875 85.75390625 C-83.96020508 85.41333008 -83.96020508 85.41333008 -80.70703125 85.4609375 C-79.54365234 85.47060547 -78.38027344 85.48027344 -77.18164062 85.49023438 C-75.96669922 85.51537109 -74.75175781 85.54050781 -73.5 85.56640625 C-72.27345703 85.57994141 -71.04691406 85.59347656 -69.78320312 85.60742188 C-66.75086336 85.64281884 -63.71940004 85.69219865 -60.6875 85.75390625 C-60.19612549 86.67840576 -60.19612549 86.67840576 -59.69482422 87.62158203 C-59.2567041 88.43095215 -58.81858398 89.24032227 -58.3671875 90.07421875 C-57.72112549 91.27715576 -57.72112549 91.27715576 -57.06201172 92.50439453 C-53.7728224 97.88744789 -48.63974894 100.87378412 -42.6875 102.75390625 C-39.86126322 103.17668626 -37.10427608 103.2316433 -34.25 103.19140625 C-33.50153809 103.18383301 -32.75307617 103.17625977 -31.98193359 103.16845703 C-26.25651499 102.99715711 -22.35162617 102.29864214 -17.6875 98.75390625 C-15.15888041 95.38241346 -14.4465131 92.81927867 -14.6875 88.69140625 C-15.4732649 84.39425448 -17.15318528 82.40464229 -20.6875 79.75390625 C-27.95998199 75.71833841 -35.82191282 74.19809474 -43.875 72.44140625 C-71.09849911 66.27102492 -71.09849911 66.27102492 -79.3828125 55.5625 C-85.65782975 45.15557248 -88.86063821 33.93756377 -85.99609375 21.83203125 C-82.54849778 11.38826773 -75.70621055 2.32947577 -65.7890625 -2.72265625 C-45.63846556 -11.40213252 -18.88691884 -12.39454049 0 0 Z " fill="#EC2023" transform="translate(1172.6875,575.24609375)"/>
<path d="M0 0 C1.10901169 -0.00990463 2.21802338 -0.01980927 3.36064148 -0.03001404 C4.57786896 -0.02551239 5.79509644 -0.02101074 7.04920959 -0.01637268 C8.33069382 -0.02323593 9.61217804 -0.03009918 10.93249512 -0.03717041 C14.44907513 -0.05513614 17.96540608 -0.05392707 21.48201823 -0.04822803 C24.41698273 -0.04514089 27.35189906 -0.05122335 30.28685671 -0.05726677 C37.21061133 -0.07132176 44.13424258 -0.06974284 51.05799866 -0.05836487 C58.20232755 -0.04688389 65.34628105 -0.06095645 72.49056047 -0.08776134 C78.62314371 -0.10990944 84.75560903 -0.11655773 90.88822943 -0.11068493 C94.5515231 -0.10731181 98.21457616 -0.10975354 101.87783623 -0.12693596 C105.96254669 -0.14525832 110.04652559 -0.13122736 114.13124084 -0.11402893 C115.34644409 -0.1236969 116.56164734 -0.13336487 117.81367493 -0.14332581 C119.4814222 -0.1285746 119.4814222 -0.1285746 121.18286133 -0.11352539 C122.63160597 -0.11321146 122.63160597 -0.11321146 124.10961819 -0.1128912 C127.3957733 0.53337918 128.59005799 1.80581628 130.65492249 4.38768005 C131.17250061 6.70603943 131.17250061 6.70603943 131.18617249 9.23143005 C131.19390686 10.60621521 131.19390686 10.60621521 131.20179749 12.0087738 C131.18632874 12.95881287 131.17085999 13.90885193 131.15492249 14.88768005 C131.17812561 16.31273865 131.17812561 16.31273865 131.20179749 17.7665863 C131.19664124 18.68310974 131.19148499 19.59963318 131.18617249 20.54393005 C131.18166077 21.37730896 131.17714905 22.21068787 131.17250061 23.06932068 C130.41977256 26.44097426 129.49455543 27.36192699 126.65492249 29.38768005 C123.09765083 29.95633807 119.57722704 29.85196069 115.98304749 29.77830505 C114.94549316 29.77264526 113.90793884 29.76698547 112.83894348 29.76115417 C109.52713257 29.73877497 106.21640604 29.68857425 102.90492249 29.63768005 C100.65884437 29.61761712 98.41274928 29.59936599 96.16664124 29.58299255 C90.6623654 29.53890523 85.15872141 29.47197746 79.65492249 29.38768005 C79.65768786 30.07459301 79.66045324 30.76150597 79.66330242 31.46923447 C79.7295344 48.17771087 79.77918946 64.88614573 79.810359 81.59472275 C79.82583272 89.67484499 79.84693184 97.75487965 79.88124084 105.83494568 C79.91112781 112.8769344 79.93049382 119.9188597 79.93718797 126.96091008 C79.94110144 130.69018864 79.95030897 134.41928573 79.97211266 138.14850616 C79.99624683 142.31001867 79.99689293 146.471215 79.99549866 150.63279724 C80.00628448 151.8714151 80.01707031 153.11003296 80.02818298 154.38618469 C80.02405899 155.51917999 80.019935 156.65217529 80.01568604 157.81950378 C80.01845141 158.80397869 80.02121679 159.7884536 80.02406597 160.80276108 C79.58973465 163.8441564 78.80581835 165.21556303 76.65492249 167.38768005 C73.60804749 167.90525818 73.60804749 167.90525818 69.90492249 167.91893005 C69.250401 167.92275696 68.59587952 167.92658386 67.92152405 167.93052673 C66.53967244 167.93324497 65.1577693 167.92588956 63.77601624 167.90916443 C61.66156752 167.88774736 59.55051562 167.90896245 57.43617249 167.93455505 C56.09241499 167.93191175 54.74865961 167.92678671 53.40492249 167.91893005 C52.18289124 167.91441833 50.96085999 167.90990662 49.70179749 167.90525818 C46.65492249 167.38768005 46.65492249 167.38768005 44.98704052 165.70334244 C43.35150035 162.86023188 43.2849727 161.0898028 43.29415894 157.81950378 C43.29003494 156.68650848 43.28591095 155.55351318 43.28166199 154.38618469 C43.29244781 153.14756683 43.30323364 151.90894897 43.31434631 150.63279724 C43.31368919 148.6714534 43.31368919 148.6714534 43.3130188 146.67048645 C43.3121581 143.08806914 43.32979571 139.5059532 43.35074067 135.92360592 C43.36949511 132.17867498 43.37125694 128.43373713 43.37481689 124.68876648 C43.384141 117.59855641 43.40875967 110.50848512 43.43886536 103.41833615 C43.47239804 95.34586519 43.48889252 87.27338759 43.50395167 79.20086432 C43.53530896 62.59638832 43.58807649 45.9920519 43.65492249 29.38768005 C43.04770859 29.39434189 42.44049469 29.40100372 41.81488037 29.40786743 C35.50486029 29.47414892 29.19493881 29.51945069 22.88465881 29.55247498 C20.52849817 29.56757753 18.17236571 29.58806097 15.81629944 29.61399841 C12.43300937 29.65031662 9.05009041 29.66739172 5.66664124 29.6806488 C4.08214424 29.70387459 4.08214424 29.70387459 2.46563721 29.72756958 C0.99445183 29.72790947 0.99445183 29.72790947 -0.50645447 29.72825623 C-1.37027237 29.73491806 -2.23409027 29.7415799 -3.12408447 29.7484436 C-5.83706316 29.30776513 -6.71299477 28.56359336 -8.34507751 26.38768005 C-8.73326111 23.98338318 -8.73326111 23.98338318 -8.74351501 21.16893005 C-8.7473822 20.15443787 -8.75124939 19.13994568 -8.75523376 18.0947113 C-8.7436322 17.03639099 -8.73203064 15.97807068 -8.72007751 14.88768005 C-8.73167908 13.82935974 -8.74328064 12.77103943 -8.75523376 11.6806488 C-8.74943298 10.15891052 -8.74943298 10.15891052 -8.74351501 8.60643005 C-8.74013123 7.67766052 -8.73674744 6.74889099 -8.73326111 5.79197693 C-7.89549572 0.60310046 -4.78936205 0.01205408 0 0 Z " fill="#ED2225" transform="translate(698.3450775146484,531.6123199462891)"/>
<path d="M0 0 C15.08764101 12.39975874 20.0402844 31.37470975 22.16796875 50.0234375 C25.46206464 83.79415921 16.26310893 119.75109916 -5.36328125 146.22265625 C-10.18152914 152.04879383 -14.82046846 157.30058339 -21.36328125 161.22265625 C-22.02328125 161.22265625 -22.68328125 161.22265625 -23.36328125 161.22265625 C-23.24734619 160.62839844 -23.13141113 160.03414062 -23.01196289 159.421875 C-22.48048686 156.68932859 -21.95310973 153.95600595 -21.42578125 151.22265625 C-21.24337891 150.28808594 -21.06097656 149.35351562 -20.87304688 148.390625 C-13.66197298 110.89304074 -17.68643132 66.55261832 -39.36328125 34.22265625 C-49.64232025 20.09539133 -65.26326307 6.35266171 -82.36328125 1.22265625 C-81.01457102 -1.4747642 -79.77975722 -1.57521486 -76.98046875 -2.6171875 C-75.61184692 -3.12668945 -75.61184692 -3.12668945 -74.21557617 -3.64648438 C-48.62700574 -12.8285741 -23.25645994 -17.49039549 0 0 Z " fill="#FCFAFA" transform="translate(600.36328125,491.77734375)"/>
<path d="M0 0 C9.52790695 6.62305727 15.0353343 15.27922386 17.375 26.625 C19.1360602 39.33368188 17.93011322 51.82343533 10.734375 62.77734375 C5.94065972 68.92064103 -0.08642532 74.12446895 -8.02661133 75.30004883 C-10.17341396 75.4369297 -12.28664324 75.46780731 -14.4375 75.4375 C-15.1888623 75.42992676 -15.94022461 75.42235352 -16.71435547 75.41455078 C-22.30041388 75.24792984 -26.489138 74.47239017 -31 71 C-31.60972656 70.57589844 -32.21945312 70.15179687 -32.84765625 69.71484375 C-37.74796792 65.97978666 -40.50093546 61.57483627 -43 56 C-43.32097656 55.30777344 -43.64195312 54.61554687 -43.97265625 53.90234375 C-48.19329991 42.77162302 -47.65382203 27.41829347 -43.26171875 16.4765625 C-39.22867926 8.5603178 -32.68594039 0.70211258 -24.140625 -2.53125 C-16.2724626 -4.25420527 -7.12908086 -3.97191648 0 0 Z " fill="#FCFBFB" transform="translate(892,599)"/>
<path d="M0 0 C21.05555291 -0.58986324 37.92199415 7.39384423 53.40234375 21.30078125 C55.3585845 23.19205459 57.1987064 25.13943178 59.01953125 27.16015625 C59.90640625 28.06765625 60.79328125 28.97515625 61.70703125 29.91015625 C63.91310515 35.37281542 61.85668925 39.7520224 60.01953125 45.16015625 C59.64828125 46.26375488 59.64828125 46.26375488 59.26953125 47.38964844 C55.96174127 57.11025722 52.40659938 66.37903787 47.01953125 75.16015625 C45.02032407 72.16134548 43.98787269 69.53902318 42.76953125 66.16015625 C36.27849943 49.10937003 26.49586239 35.19962383 9.89453125 26.84765625 C-13.33890449 16.87494173 -38.85099351 20.56502482 -62.04541016 28.67260742 C-66.68018046 30.26025235 -66.68018046 30.26025235 -69.98046875 29.16015625 C-48.44149648 12.51392007 -27.66047073 1.48634246 0 0 Z " fill="#FCFAFA" transform="translate(371.98046875,422.83984375)"/>
<path d="M0 0 C6.60484189 4.79838941 10.64448721 11.22579685 13 19 C13.495 23.455 13.495 23.455 14 28 C-6.46 28 -26.92 28 -48 28 C-46.68274388 17.461951 -43.39002321 8.68322606 -35.26953125 1.4609375 C-24.98230456 -6.30557801 -11.11951101 -6.12353726 0 0 Z " fill="#FCFBFB" transform="translate(913,397)"/>
<path d="M0 0 C9.6744695 1.10646425 18.4226184 8.03408109 25 15 C28.45958242 19.41677914 31.59494503 23.9213645 34 29 C33.01 29.495 33.01 29.495 32 30 C31.43732422 29.00419922 31.43732422 29.00419922 30.86328125 27.98828125 C27.98662553 23.02478209 25.31045211 18.8033401 21 15 C20.67 15.66 20.34 16.32 20 17 C19.67 16.01 19.34 15.02 19 14 C18.01 14 17.02 14 16 14 C15.979375 13.236875 15.95875 12.47375 15.9375 11.6875 C15.628125 10.800625 15.31875 9.91375 15 9 C11.6265242 7.31609415 11.6265242 7.31609415 8 6 C6.9805881 5.01979625 5.97753644 4.02196992 5 3 C2.40084462 1.80972016 2.40084462 1.80972016 0 1 C0 0.67 0 0.34 0 0 Z " fill="#EC1719" transform="translate(920,369)"/>
<path d="M0 0 C0.66 0 1.32 0 2 0 C2.81898622 3.57350041 3.11811958 6.85659479 3.09765625 10.51953125 C3.09282227 12.0519043 3.09282227 12.0519043 3.08789062 13.61523438 C3.07951172 14.67033203 3.07113281 15.72542969 3.0625 16.8125 C3.05798828 17.88693359 3.05347656 18.96136719 3.04882812 20.06835938 C3.03707729 22.71229683 3.02064787 25.35611952 3 28 C2.34 28.33 1.68 28.66 1 29 C0.95101562 28.02160156 0.90203125 27.04320312 0.8515625 26.03515625 C0.41094203 17.37771462 0.41094203 17.37771462 -1.1875 8.875 C-2.01466577 4.93005554 -1.9908941 3.42876206 0 0 Z " fill="#ED181B" transform="translate(564,356)"/>
<path d="M0 0 C0.33 0 0.66 0 1 0 C1.24590725 5.86211161 0.3314223 11.10015429 -0.9375 16.8125 C-1.11990234 17.67037109 -1.30230469 18.52824219 -1.49023438 19.41210938 C-2.8512591 25.7025182 -2.8512591 25.7025182 -4 28 C-5.32 27.34 -6.64 26.68 -8 26 C-8 24.35 -8 22.7 -8 21 C-6.68 20.34 -5.36 19.68 -4 19 C-4.99 19 -5.98 19 -7 19 C-7.33 17.68 -7.66 16.36 -8 15 C-6.0625 14.4375 -6.0625 14.4375 -4 14 C-3.67 14.33 -3.34 14.66 -3 15 C-2.34 12.03 -1.68 9.06 -1 6 C-1.66 5.67 -2.32 5.34 -3 5 C-2.01 5 -1.02 5 0 5 C0 3.35 0 1.7 0 0 Z " fill="#EE1619" transform="translate(472,396)"/>
<path d="M0 0 C9.9 0 19.8 0 30 0 C31 5 31 5 30.00390625 6.80078125 C28.66927083 8.20052083 27.33463542 9.60026042 26 11 C26 8 26 8 27 6 C26.34 6 25.68 6 25 6 C25.33 4.68 25.66 3.36 26 2 C13.13 1.505 13.13 1.505 0 1 C0 0.67 0 0.34 0 0 Z " fill="#EB0E0F" transform="translate(1080,368)"/>
<path d="M0 0 C0.33 0 0.66 0 1 0 C3.29454901 13.30838424 2.64536972 25.6299719 1 39 C0.67 39 0.34 39 0 39 C0 26.13 0 13.26 0 0 Z " fill="#EB080B" transform="translate(563,586)"/>
<path d="M0 0 C3.99900579 1.41525613 7.13669183 3.32057 10.5625 5.8125 C11.49191406 6.47894531 12.42132812 7.14539063 13.37890625 7.83203125 C16.01124144 10.00929806 17.97009115 12.26320525 20 15 C19.34 15 18.68 15 18 15 C17.67 15.99 17.34 16.98 17 18 C16.34 17.67 15.68 17.34 15 17 C15.33 15.68 15.66 14.36 16 13 C13.84365964 13 12.07553648 13.4465236 10 14 C10 13.01 10 12.02 10 11 C10.66 11 11.32 11 12 11 C9.22726356 8.05921893 6.5074952 5.5645495 3.1875 3.25 C2.135625 2.5075 1.08375 1.765 0 1 C0 0.67 0 0.34 0 0 Z " fill="#EC1415" transform="translate(529,498)"/>
<path d="M0 0 C-0.33 0.66 -0.66 1.32 -1 2 C-0.34 2.33 0.32 2.66 1 3 C-0.11375 3.309375 -1.2275 3.61875 -2.375 3.9375 C-5.7945155 4.82326483 -5.7945155 4.82326483 -8 6 C-9.13350534 8.01669827 -9.13350534 8.01669827 -10 10 C-14 10 -14 10 -16 9 C-4.43190921 -1.47730307 -4.43190921 -1.47730307 0 0 Z " fill="#EC1C1C" transform="translate(865,373)"/>
<path d="M0 0 C0.99 1.32 1.98 2.64 3 4 C2.34 4 1.68 4 1 4 C0.67 5.98 0.34 7.96 0 10 C0.99 10.33 1.98 10.66 3 11 C0.93970355 14.09044468 0.17393713 14.51221697 -3 16 C-3.66 16.66 -4.32 17.32 -5 18 C-4.34309381 14.21760329 -3.279869 10.78158474 -1.9375 7.1875 C-1.57527344 6.21167969 -1.21304687 5.23585938 -0.83984375 4.23046875 C-0.42412109 3.12638672 -0.42412109 3.12638672 0 2 C-1.65 2 -3.3 2 -5 2 C-5 1.67 -5 1.34 -5 1 C-3.35 0.67 -1.7 0.34 0 0 Z " fill="#EB1315" transform="translate(492,505)"/>
<path d="M0 0 C0.66 0 1.32 0 2 0 C2.66 0.99 3.32 1.98 4 3 C5.65 2.67 7.3 2.34 9 2 C8.7525 2.94875 8.505 3.8975 8.25 4.875 C7.54260876 9.42650419 9.29263828 12.79306842 11.1875 16.86328125 C11.455625 17.56839844 11.72375 18.27351562 12 19 C11.67 19.66 11.34 20.32 11 21 C10.18595703 19.35451172 10.18595703 19.35451172 9.35546875 17.67578125 C8.6329203 16.22130061 7.91025804 14.7668765 7.1875 13.3125 C6.83107422 12.59126953 6.47464844 11.87003906 6.10742188 11.12695312 C4.21193781 7.31859523 2.25792874 3.61126143 0 0 Z " fill="#ED1416" transform="translate(606,497)"/>
<path d="M0 0 C2 1 2 1 2.8515625 2.890625 C5.41509434 10.71069182 5.41509434 10.71069182 5 15 C4.5875 14.360625 4.175 13.72125 3.75 13.0625 C1.82189513 10.79009069 0.88575819 10.39803561 -2 10 C-2 8.02 -2 6.04 -2 4 C-1.34 3.67 -0.68 3.34 0 3 C0 2.01 0 1.02 0 0 Z " fill="#EE181B" transform="translate(555,312)"/>
<path d="M0 0 C0.98291016 0.00966797 1.96582031 0.01933594 2.97851562 0.02929688 C4.00267578 0.05443359 5.02683594 0.07957031 6.08203125 0.10546875 C7.11779297 0.11900391 8.15355469 0.13253906 9.22070312 0.14648438 C11.77916824 0.18185486 14.33658905 0.23121331 16.89453125 0.29296875 C16.89453125 0.62296875 16.89453125 0.95296875 16.89453125 1.29296875 C16.29914551 1.3180249 15.70375977 1.34308105 15.09033203 1.36889648 C12.39983989 1.48474369 9.70970785 1.60752071 7.01953125 1.73046875 C6.08238281 1.76978516 5.14523437 1.80910156 4.1796875 1.84960938 C2.83583984 1.91245117 2.83583984 1.91245117 1.46484375 1.9765625 C0.22371826 2.03154907 0.22371826 2.03154907 -1.04248047 2.08764648 C-3.16726304 2.17535202 -3.16726304 2.17535202 -5.10546875 3.29296875 C-4.77546875 4.94296875 -4.44546875 6.59296875 -4.10546875 8.29296875 C-5.42546875 8.62296875 -6.74546875 8.95296875 -8.10546875 9.29296875 C-8.47111246 3.80831306 -8.47111246 3.80831306 -6.9128418 1.61206055 C-4.49481232 -0.15271228 -2.97417041 -0.05157521 0 0 Z " fill="#EB0A0B" transform="translate(1091.10546875,660.70703125)"/>
<path d="M0 0 C0.66 0.33 1.32 0.66 2 1 C1.67 1.721875 1.34 2.44375 1 3.1875 C-0.00603529 6.01697427 -0.16977402 8.02895466 0 11 C-1.11375 11.12375 -1.11375 11.12375 -2.25 11.25 C-5.51221354 12.1396946 -6.80954878 13.48503749 -9 16 C-7.56691865 12.04093183 -5.66858051 8.71281819 -3.375 5.1875 C-2.74335937 4.21167969 -2.11171875 3.23585938 -1.4609375 2.23046875 C-0.73777344 1.12638672 -0.73777344 1.12638672 0 0 Z " fill="#EB161A" transform="translate(606,620)"/>
<path d="M0 0 C3.78963117 3.60082392 6.89719513 7.33461009 9.875 11.625 C10.29007813 12.19734375 10.70515625 12.7696875 11.1328125 13.359375 C12.3046875 15.0390625 12.3046875 15.0390625 14 18 C13.67 18.99 13.34 19.98 13 21 C12.38125 19.7934375 12.38125 19.7934375 11.75 18.5625 C10.26547669 15.85890282 10.26547669 15.85890282 7.8125 15.1875 C7.214375 15.125625 6.61625 15.06375 6 15 C6 14.34 6 13.68 6 13 C5.34 12.67 4.68 12.34 4 12 C4.66 11.67 5.32 11.34 6 11 C5.566875 10.37351562 5.13375 9.74703125 4.6875 9.1015625 C4.130625 8.28429687 3.57375 7.46703125 3 6.625 C2.443125 5.81289063 1.88625 5.00078125 1.3125 4.1640625 C0 2 0 2 0 0 Z " fill="#EC171A" transform="translate(1021,384)"/>
<path d="M0 0 C0.66 0.33 1.32 0.66 2 1 C1.67 2.11375 1.34 3.2275 1 4.375 C-0.088643 7.69459717 -0.088643 7.69459717 0 10 C-1.65 10 -3.3 10 -5 10 C-5.33 11.98 -5.66 13.96 -6 16 C-7.0255368 13.32738894 -7.08282493 12.2243612 -6.07421875 9.4921875 C-5.61660156 8.62851562 -5.15898437 7.76484375 -4.6875 6.875 C-4.23761719 6.00617188 -3.78773438 5.13734375 -3.32421875 4.2421875 C-2 2 -2 2 0 0 Z " fill="#EB181A" transform="translate(280,447)"/>
<path d="M0 0 C0.66 0 1.32 0 2 0 C2.33 0.66 2.66 1.32 3 2 C5.01669827 3.13350534 5.01669827 3.13350534 7 4 C-8.74487472 4.3690205 -8.74487472 4.3690205 -16 2 C-16 1.67 -16 1.34 -16 1 C-10.72 1.33 -5.44 1.66 0 2 C0 1.34 0 0.68 0 0 Z " fill="#EF1111" transform="translate(876,699)"/>
<path d="M0 0 C3.14128754 1.57064377 3.57809687 4.66761078 4.6875 7.8125 C4.92533203 8.44220703 5.16316406 9.07191406 5.40820312 9.72070312 C6.63142274 13.13926116 7.43004376 15.55922805 6 19 C5.34 18.01 4.68 17.02 4 16 C3.01 16 2.02 16 1 16 C1.391875 15.34 1.78375 14.68 2.1875 14 C3.22494013 10.16945182 2.30352821 8.39136304 0.7265625 4.8671875 C0 3 0 3 0 0 Z " fill="#EB1718" transform="translate(1007,641)"/>
<path d="M0 0 C1.65 0.33 3.3 0.66 5 1 C4.34 8.26 3.68 15.52 3 23 C2.67 23 2.34 23 2 23 C2 17.06 2 11.12 2 5 C1.01 4.67 0.02 4.34 -1 4 C-0.67 2.68 -0.34 1.36 0 0 Z " fill="#ED1011" transform="translate(474,268)"/>
<path d="M0 0 C0.33 0 0.66 0 1 0 C1.33 1.98 1.66 3.96 2 6 C3.32 5.34 4.64 4.68 6 4 C6 7 6 7 5 9 C4.34 9 3.68 9 3 9 C3.33 10.65 3.66 12.3 4 14 C3.01 14 2.02 14 1 14 C0.67 14.66 0.34 15.32 0 16 C0 10.72 0 5.44 0 0 Z " fill="#ED1315" transform="translate(457,274)"/>
<path d="M0 0 C2.475 0.99 2.475 0.99 5 2 C5 2.99 5 3.98 5 5 C6.74697699 7.57036515 8.64859098 9.98475341 10.56640625 12.4296875 C12 15 12 15 11.83984375 17.7578125 C11 20 11 20 9 21 C9.26683594 20.32324219 9.53367187 19.64648438 9.80859375 18.94921875 C10.09846591 14.48282112 7.7409413 12.2165748 5.0625 8.8125 C0 2.20481928 0 2.20481928 0 0 Z " fill="#EC1112" transform="translate(1008,422)"/>
<path d="M0 0 C0.82638376 2.89234315 1 4.88742431 1 8 C-1 9.75 -1 9.75 -3 11 C-3.66 10.34 -4.32 9.68 -5 9 C-5.99 9.495 -5.99 9.495 -7 10 C-5.33248852 6.05860922 -2.77289351 3.2107188 0 0 Z " fill="#EE191B" transform="translate(444,589)"/>
<path d="M0 0 C0.66 0 1.32 0 2 0 C2 0.66 2 1.32 2 2 C3.65 1.67 5.3 1.34 7 1 C3.45041822 3.94134142 -0.41859739 5.80792028 -4.5625 7.75 C-5.23474609 8.07871094 -5.90699219 8.40742187 -6.59960938 8.74609375 C-11.64170248 11.11943251 -11.64170248 11.11943251 -15 10 C-14.00097656 9.52949219 -13.00195312 9.05898438 -11.97265625 8.57421875 C-10.66901425 7.94584455 -9.36564269 7.31690905 -8.0625 6.6875 C-7.40314453 6.37876953 -6.74378906 6.07003906 -6.06445312 5.75195312 C-4.33723979 4.91049022 -2.6639473 3.96052335 -1 3 C-0.67 2.01 -0.34 1.02 0 0 Z " fill="#EC1012" transform="translate(464,510)"/>
<path d="M0 0 C0.66 0.33 1.32 0.66 2 1 C2 2.32 2 3.64 2 5 C-0.85478326 6.90318884 -2.41941308 7.4619099 -5.6875 8.125 C-6.49574219 8.29257812 -7.30398438 8.46015625 -8.13671875 8.6328125 C-8.75160156 8.75398438 -9.36648438 8.87515625 -10 9 C-6.83047153 5.73991357 -3.60062011 2.77762123 0 0 Z " fill="#FBE7E8" transform="translate(312,444)"/>
<path d="M0 0 C1.98 0.66 3.96 1.32 6 2 C6.08097324 4.27024968 6.13917704 6.54132075 6.1875 8.8125 C6.22230469 10.07707031 6.25710938 11.34164062 6.29296875 12.64453125 C6 16 6 16 4.48828125 17.94921875 C3.99714844 18.29597656 3.50601562 18.64273438 3 19 C3.11859375 18.35933594 3.2371875 17.71867188 3.359375 17.05859375 C4.34104669 10.47157671 3.75971726 7.46867965 0 2 C0 1.34 0 0.68 0 0 Z " fill="#EB1010" transform="translate(1154,654)"/>
<path d="M0 0 C0.99 0.33 1.98 0.66 3 1 C3 1.99 3 2.98 3 4 C3.99 4.66 4.98 5.32 6 6 C1.38 6 -3.24 6 -8 6 C-8 5.67 -8 5.34 -8 5 C-6.35 5 -4.7 5 -3 5 C-3 4.01 -3 3.02 -3 2 C-2.01 2 -1.02 2 0 2 C0 1.34 0 0.68 0 0 Z " fill="#EC1114" transform="translate(373,417)"/>
<path d="M0 0 C0.66 0.66 1.32 1.32 2 2 C4.71615864 2.37207354 4.71615864 2.37207354 7.8828125 2.4140625 C9.04941406 2.45273437 10.21601562 2.49140625 11.41796875 2.53125 C13.25294922 2.57765625 13.25294922 2.57765625 15.125 2.625 C16.35605469 2.66367187 17.58710937 2.70234375 18.85546875 2.7421875 C21.90349376 2.8366999 24.95150862 2.92225494 28 3 C28 3.33 28 3.66 28 4 C18.76 4.33 9.52 4.66 0 5 C-0.33 3.68 -0.66 2.36 -1 1 C-0.67 0.67 -0.34 0.34 0 0 Z " fill="#EC292C" transform="translate(1160,604)"/>
<path d="M0 0 C5.28 0.66 10.56 1.32 16 2 C16 2.33 16 2.66 16 3 C11.71 3 7.42 3 3 3 C2.67 3.99 2.34 4.98 2 6 C1.01 5.67 0.02 5.34 -1 5 C-1 4.34 -1 3.68 -1 3 C-0.34 3 0.32 3 1 3 C0.67 2.01 0.34 1.02 0 0 Z " fill="#EC1314" transform="translate(866,673)"/>
<path d="M0 0 C0.433125 0.495 0.86625 0.99 1.3125 1.5 C2.99740483 3.33218192 2.99740483 3.33218192 6 3 C6.103125 3.763125 6.20625 4.52625 6.3125 5.3125 C6.76069823 8.01559942 6.76069823 8.01559942 8.5 9.5 C10.49901075 11.49901075 10.62890981 13.25393258 11 16 C6.50683005 11.90328622 3.02186027 7.28565938 0 2 C0 1.34 0 0.68 0 0 Z " fill="#ED1415" transform="translate(976,377)"/>
<path d="M0 0 C0.33 0 0.66 0 1 0 C1 6.27 1 12.54 1 19 C0.34 19 -0.32 19 -1 19 C-1.33 20.32 -1.66 21.64 -2 23 C-2 19.7 -2 16.4 -2 13 C-1.67 13 -1.34 13 -1 13 C-0.67 8.71 -0.34 4.42 0 0 Z " fill="#F04547" transform="translate(477,276)"/>
<path d="M0 0 C-1.7873962 1.33905267 -3.58004953 2.67109066 -5.375 4 C-6.37273437 4.7425 -7.37046875 5.485 -8.3984375 6.25 C-11 8 -11 8 -13 8 C-11.25 4.125 -11.25 4.125 -9 3 C-8.319375 2.2575 -8.319375 2.2575 -7.625 1.5 C-5.13089647 -0.80224941 -3.0875397 -1.54376985 0 0 Z " fill="#EC1618" transform="translate(424,678)"/>
<path d="M0 0 C0.74609375 1.734375 0.74609375 1.734375 1 4 C-0.65234375 6.140625 -0.65234375 6.140625 -2.9375 8.25 C-3.68902344 8.95640625 -4.44054687 9.6628125 -5.21484375 10.390625 C-5.80394531 10.92171875 -6.39304687 11.4528125 -7 12 C-7 9 -7 9 -5.5 7.3125 C-5.005 6.879375 -4.51 6.44625 -4 6 C-4.33 5.34 -4.66 4.68 -5 4 C-4.67 3.01 -4.34 2.02 -4 1 C-1.9375 0.3125 -1.9375 0.3125 0 0 Z " fill="#EB1618" transform="translate(470,629)"/>
<path d="M0 0 C7.75 0.75 7.75 0.75 10 3 C9.01 3.33 8.02 3.66 7 4 C7 4.66 7 5.32 7 6 C4.5625 5.625 4.5625 5.625 2 5 C1.67 4.34 1.34 3.68 1 3 C1.33 2.34 1.66 1.68 2 1 C1.34 0.67 0.68 0.34 0 0 Z " fill="#ED171A" transform="translate(894,569)"/>
<path d="M0 0 C-5.75 3 -5.75 3 -8 3 C-8 4.32 -8 5.64 -8 7 C-10.64 7 -13.28 7 -16 7 C-13.71415563 3.57123345 -12.2557589 2.91760694 -8.5625 1.25 C-7.59441406 0.80140625 -6.62632812 0.3528125 -5.62890625 -0.109375 C-3 -1 -3 -1 0 0 Z " fill="#EC1214" transform="translate(502,478)"/>
<path d="M0 0 C0.99 0 1.98 0 3 0 C2.74337755 1.44010481 2.46909179 2.8770687 2.1875 4.3125 C2.03667969 5.11300781 1.88585938 5.91351562 1.73046875 6.73828125 C0.92427764 9.23445587 -0.02052002 10.32422106 -2 12 C-1.814375 11.071875 -1.62875 10.14375 -1.4375 9.1875 C-0.75876119 5.98656229 -0.75876119 5.98656229 -2 3 C-1.34 2.01 -0.68 1.02 0 0 Z " fill="#ED1719" transform="translate(1032,693)"/>
<path d="M0 0 C0.33 0.66 0.66 1.32 1 2 C1.99 2.33 2.98 2.66 4 3 C2.21475351 4.19713017 0.4215972 5.38247279 -1.375 6.5625 C-2.87160156 7.55443359 -2.87160156 7.55443359 -4.3984375 8.56640625 C-5.25695312 9.03949219 -6.11546875 9.51257813 -7 10 C-7.66 9.67 -8.32 9.34 -9 9 C-8.071875 8.443125 -7.14375 7.88625 -6.1875 7.3125 C-3.0580593 5.04212145 -1.70245949 3.40491897 0 0 Z " fill="#ED1313" transform="translate(444,520)"/>
<path d="M0 0 C3.63 0 7.26 0 11 0 C10.67 1.65 10.34 3.3 10 5 C8.35 4.67 6.7 4.34 5 4 C5 3.34 5 2.68 5 2 C3.35 1.67 1.7 1.34 0 1 C0 0.67 0 0.34 0 0 Z " fill="#EF4243" transform="translate(873,674)"/>
<path d="M0 0 C3.45925163 1.2491742 6.14693203 2.67527795 9 5 C8.67 5.99 8.34 6.98 8 8 C5.9375 8.6875 5.9375 8.6875 4 9 C4.0825 8.2575 4.165 7.515 4.25 6.75 C3.92894816 3.21842973 2.64734383 2.23369636 0 0 Z " fill="#EB1618" transform="translate(911,575)"/>
<path d="M0 0 C1.32 0 2.64 0 4 0 C3.125 4.75 3.125 4.75 2 7 C0.68 7 -0.64 7 -2 7 C-1.34 4.69 -0.68 2.38 0 0 Z " fill="#EE272C" transform="translate(1124,567)"/>
<path d="M0 0 C2.70272533 2.87164566 3.94791837 4.30991841 4.25 8.3125 C4.1675 9.199375 4.085 10.08625 4 11 C3.01 11.495 3.01 11.495 2 12 C0.86235649 7.73383684 0 4.43513689 0 0 Z " fill="#ED1617" transform="translate(619,522)"/>
<path d="M0 0 C0.33 0.66 0.66 1.32 1 2 C-0.98 4.97 -2.96 7.94 -5 11 C-5.33 10.34 -5.66 9.68 -6 9 C-6.99 8.67 -7.98 8.34 -9 8 C-6 6 -6 6 -3 6 C-2.690625 5.195625 -2.38125 4.39125 -2.0625 3.5625 C-1 1 -1 1 0 0 Z " fill="#EB1314" transform="translate(501,589)"/>
<path d="M0 0 C2 3 2 3 2 5 C2.66 5 3.32 5 4 5 C4 6.98 4 8.96 4 11 C3.34 11 2.68 11 2 11 C0.57741188 7.17679443 -0.24042276 4.08718695 0 0 Z " fill="#EC1515" transform="translate(261,698)"/>
<path d="M0 0 C0.61875 0.804375 1.2375 1.60875 1.875 2.4375 C3.74164041 5.03874519 3.74164041 5.03874519 6 6 C6 7.65 6 9.3 6 11 C3.34730103 8.52414762 1.31989897 6.40973899 0 3 C0 2.01 0 1.02 0 0 Z " fill="#EC1213" transform="translate(1089,620)"/>
<path d="M0 0 C0.33 0 0.66 0 1 0 C1.33 3.3 1.66 6.6 2 10 C1.01 9.67 0.02 9.34 -1 9 C-1.125 2.25 -1.125 2.25 0 0 Z " fill="#EE2C2C" transform="translate(942,617)"/>
<path d="M0 0 C0 2.62113708 -0.31292445 4.50935112 -1 7 C-5 7 -5 7 -7 6 C-4.69 4.02 -2.38 2.04 0 0 Z " fill="#EB1414" transform="translate(856,376)"/>
<path d="M0 0 C0.33 0 0.66 0 1 0 C1 4.29 1 8.58 1 13 C0.01 13 -0.98 13 -2 13 C-2 11.02 -2 9.04 -2 7 C-1.67 7 -1.34 7 -1 7 C-0.67 4.69 -0.34 2.38 0 0 Z " fill="#EF282A" transform="translate(460,343)"/>
<path d="M0 0 C-1.06546953 2.13093906 -2.29159719 3.36587557 -4 5 C-4.33 4.34 -4.66 3.68 -5 3 C-6.65 3.33 -8.3 3.66 -10 4 C-4.7826087 0 -4.7826087 0 0 0 Z " fill="#EC1215" transform="translate(342,675)"/>
<path d="M0 0 C1.485 0.99 1.485 0.99 3 2 C3.3125 5.5 3.3125 5.5 3 9 C2.34 9.66 1.68 10.32 1 11 C-0.20272819 8.59454362 -0.10071472 7.05003047 -0.0625 4.375 C-0.05347656 3.55773437 -0.04445313 2.74046875 -0.03515625 1.8984375 C-0.02355469 1.27195312 -0.01195312 0.64546875 0 0 Z " fill="#EE2A2B" transform="translate(580,597)"/>
<path d="M0 0 C0.33 0 0.66 0 1 0 C1.38922918 1.28745036 1.76098036 2.58019597 2.125 3.875 C2.33382812 4.59429688 2.54265625 5.31359375 2.7578125 6.0546875 C2.83773437 6.69664062 2.91765625 7.33859375 3 8 C2.34 8.66 1.68 9.32 1 10 C0.34 10 -0.32 10 -1 10 C-0.67 6.7 -0.34 3.4 0 0 Z " fill="#EE1214" transform="translate(621,576)"/>
<path d="M0 0 C1.32 0.66 2.64 1.32 4 2 C3.34 3.65 2.68 5.3 2 7 C1.34 7 0.68 7 0 7 C-0.93423645 3.98968256 -1.04449911 3.13349732 0 0 Z " fill="#FAF2F3" transform="translate(1041,406)"/>
<path d="M0 0 C3.53790403 3.69172595 3.59115883 7.09390595 4 12 C0.46209597 8.30827405 0.40884117 4.90609405 0 0 Z " fill="#ED1A1A" transform="translate(802,390)"/>
<path d="M0 0 C0.66 0.99 1.32 1.98 2 3 C1.01 3.495 1.01 3.495 0 4 C-0.33 4.99 -0.66 5.98 -1 7 C-1.66 7 -2.32 7 -3 7 C-3.33 6.01 -3.66 5.02 -4 4 C-2.68 2.68 -1.36 1.36 0 0 Z M2 1 C5 2 5 2 5 2 Z " fill="#EC2C2F" transform="translate(707,377)"/>
<path d="M0 0 C2.00720923 0.28674418 4.0085944 0.61866701 6 1 C5.01 1.33 4.02 1.66 3 2 C2.67 2.66 2.34 3.32 2 4 C-0.5625 4.625 -0.5625 4.625 -3 5 C-1.125 1.125 -1.125 1.125 0 0 Z " fill="#ED171B" transform="translate(1073,369)"/>
<path d="M0 0 C0.33 0 0.66 0 1 0 C0.67 3.3 0.34 6.6 0 10 C-0.66 9.67 -1.32 9.34 -2 9 C-2.25 3.375 -2.25 3.375 0 0 Z " fill="#FBF3F3" transform="translate(480,355)"/>
<path d="M0 0 C2 2 2 2 2 5 C2.66 5 3.32 5 4 5 C4 6.65 4 8.3 4 10 C3.34 10 2.68 10 2 10 C0.68373308 6.38026598 0 3.90432869 0 0 Z " fill="#EC1515" transform="translate(539,324)"/>
<path d="M0 0 C1.32 0 2.64 0 4 0 C3.45773019 3.79588866 1.79872437 5.47211993 -1 8 C-0.67 5.36 -0.34 2.72 0 0 Z " fill="#ED1416" transform="translate(1184,678)"/>
<path d="M0 0 C0.66 0.99 1.32 1.98 2 3 C-0.91765 4.9451 -2.62537285 5.45276317 -6 6 C-2.25 1.125 -2.25 1.125 0 0 Z " fill="#EB1618" transform="translate(840,577)"/>
<path d="M0 0 C1.98 0 3.96 0 6 0 C4.35 1.65 2.7 3.3 1 5 C0.34 4.67 -0.32 4.34 -1 4 C-0.67 2.68 -0.34 1.36 0 0 Z " fill="#ED181A" transform="translate(428,531)"/>
<path d="M0 0 C1.32 0.33 2.64 0.66 4 1 C4.33 3.31 4.66 5.62 5 8 C4.34 8 3.68 8 3 8 C3 6.68 3 5.36 3 4 C2.01 3.67 1.02 3.34 0 3 C0.66 2.67 1.32 2.34 2 2 C1.34 1.34 0.68 0.68 0 0 Z " fill="#EB1315" transform="translate(956,468)"/>
<path d="M0 0 C0.66 0.99 1.32 1.98 2 3 C4.42521494 3.58189266 4.42521494 3.58189266 7.125 3.6875 C8.49011719 3.78611328 8.49011719 3.78611328 9.8828125 3.88671875 C10.58148437 3.92410156 11.28015625 3.96148437 12 4 C12 4.33 12 4.66 12 5 C7.71 5 3.42 5 -1 5 C-0.67 3.35 -0.34 1.7 0 0 Z " fill="#F9C5C6" transform="translate(559,455)"/>
<path d="M0 0 C0.66 0 1.32 0 2 0 C2 0.66 2 1.32 2 2 C2.66 2 3.32 2 4 2 C3.67 3.65 3.34 5.3 3 7 C1.68 5.68 0.36 4.36 -1 3 C-0.67 2.01 -0.34 1.02 0 0 Z " fill="#EC1817" transform="translate(1004,414)"/>
<path d="M0 0 C0.268125 0.639375 0.53625 1.27875 0.8125 1.9375 C1.88667752 4.33131686 1.88667752 4.33131686 5 5 C5.33 5.99 5.66 6.98 6 8 C3.03 7.505 3.03 7.505 0 7 C0 4.69 0 2.38 0 0 Z " fill="#ED1417" transform="translate(545,351)"/>
<path d="M0 0 C0.66 0.33 1.32 0.66 2 1 C1.34 2.32 0.68 3.64 0 5 C-4 5 -4 5 -7 4 C-1.7265625 0.77734375 -1.7265625 0.77734375 0 0 Z " fill="#FAF2F3" transform="translate(913,693)"/>
<path d="M0 0 C0.99 0.99 1.98 1.98 3 3 C2.34 4.32 1.68 5.64 1 7 C0.67 6.34 0.34 5.68 0 5 C-0.66 5 -1.32 5 -2 5 C-1.34 3.35 -0.68 1.7 0 0 Z " fill="#F9F1F1" transform="translate(1155,657)"/>
<path d="M0 0 C0.99 0.33 1.98 0.66 3 1 C2.67 2.65 2.34 4.3 2 6 C1.34 5.34 0.68 4.68 0 4 C-0.66 4.66 -1.32 5.32 -2 6 C-2 4.68 -2 3.36 -2 2 C-1.34 2 -0.68 2 0 2 C0 1.34 0 0.68 0 0 Z " fill="#EE282A" transform="translate(470,626)"/>
<path d="M0 0 C0.66 1.32 1.32 2.64 2 4 C1.01 4.33 0.02 4.66 -1 5 C-1.33 4.67 -1.66 4.34 -2 4 C-2.66 4.66 -3.32 5.32 -4 6 C-3.67 4.35 -3.34 2.7 -3 1 C-2.01 0.67 -1.02 0.34 0 0 Z " fill="#EC151A" transform="translate(996,709)"/>
<path d="M0 0 C1.32 0.66 2.64 1.32 4 2 C2.25 5.875 2.25 5.875 0 7 C-0.38133299 5.0085944 -0.71325582 3.00720923 -1 1 C-0.67 0.67 -0.34 0.34 0 0 Z " fill="#EE1215" transform="translate(473,622)"/>
<path d="M0 0 C2 3.875 2 3.875 2 5 C-0.31 5.33 -2.62 5.66 -5 6 C-3.35 4.02 -1.7 2.04 0 0 Z " fill="#ED1016" transform="translate(366,570)"/>
<path d="M0 0 C1.670625 0.495 1.670625 0.495 3.375 1 C6.69459717 2.088643 6.69459717 2.088643 9 2 C9 2.99 9 3.98 9 5 C4.68607774 4.5206753 2.83430453 3.2542015 0 0 Z " fill="#EC1211" transform="translate(854,500)"/>
<path d="M0 0 C0.99 0.33 1.98 0.66 3 1 C2.67 1.99 2.34 2.98 2 4 C1.01 4.33 0.02 4.66 -1 5 C-3.1875 3.5625 -3.1875 3.5625 -5 2 C-3.35 1.67 -1.7 1.34 0 1 C0 0.67 0 0.34 0 0 Z " fill="#F9F2F1" transform="translate(604,465)"/>
<path d="M0 0 C0.66 0.99 1.32 1.98 2 3 C0.03533587 4.06775224 -1.96855359 5.06553465 -4 6 C-4.66 5.67 -5.32 5.34 -6 5 C-4.02 3.35 -2.04 1.7 0 0 Z " fill="#EC1718" transform="translate(304,424)"/>
</svg>
